<svg width="29" height="29" viewBox="0 0 29 29" fill="none" xmlns="http://www.w3.org/2000/svg">
<path d="M14.5 13.0417L14.5 20.3333M14.5 27.625C12.7764 27.625 11.0697 27.2855 9.47728 26.6259C7.88488 25.9663 6.43799 24.9995 5.21922 23.7808C4.00045 22.562 3.03367 21.1151 2.37408 19.5227C1.71449 17.9303 1.375 16.2236 1.375 14.5C1.375 12.7764 1.71449 11.0697 2.37408 9.47728C3.03367 7.88488 4.00045 6.43799 5.21922 5.21922C6.43799 4.00045 7.88488 3.03367 9.47728 2.37408C11.0697 1.71449 12.7764 1.375 14.5 1.375C17.981 1.375 21.3194 2.75781 23.7808 5.21922C26.2422 7.68064 27.625 11.019 27.625 14.5C27.625 17.981 26.2422 21.3194 23.7808 23.7808C21.3194 26.2422 17.981 27.625 14.5 27.625ZM14.5729 8.66667L14.5729 8.8125L14.4271 8.8125L14.4271 8.66667L14.5729 8.66667Z" stroke="#026F2E" stroke-width="2" stroke-linecap="round" stroke-linejoin="round"/>
</svg>
