<svg width="18" height="24" viewBox="0 0 18 24" fill="none" xmlns="http://www.w3.org/2000/svg">
<path d="M2.25 23.625C1.63125 23.625 1.10138 23.4045 0.660377 22.9635C0.219377 22.5225 -0.00074809 21.993 1.91002e-06 21.375V10.125C1.91002e-06 9.50625 0.220502 8.97637 0.661502 8.53537C1.1025 8.09437 1.632 7.87425 2.25 7.875H3.375V5.625C3.375 4.06875 3.92363 2.742 5.02088 1.64475C6.11813 0.547501 7.4445 -0.000749231 9 7.68443e-07C10.5562 7.68443e-07 11.883 0.548626 12.9802 1.64588C14.0775 2.74313 14.6257 4.0695 14.625 5.625V7.875H15.75C16.3687 7.875 16.8986 8.0955 17.3396 8.5365C17.7806 8.9775 18.0007 9.507 18 10.125V21.375C18 21.9937 17.7795 22.5236 17.3385 22.9646C16.8975 23.4056 16.368 23.6257 15.75 23.625H2.25ZM9 18C9.61875 18 10.1486 17.7795 10.5896 17.3385C11.0306 16.8975 11.2507 16.368 11.25 15.75C11.25 15.1312 11.0295 14.6014 10.5885 14.1604C10.1475 13.7194 9.618 13.4992 9 13.5C8.38125 13.5 7.85138 13.7205 7.41038 14.1615C6.96938 14.6025 6.74925 15.132 6.75 15.75C6.75 16.3687 6.9705 16.8986 7.4115 17.3396C7.8525 17.7806 8.382 18.0007 9 18ZM5.625 7.875H12.375V5.625C12.375 4.6875 12.0469 3.89062 11.3906 3.23438C10.7344 2.57813 9.9375 2.25 9 2.25C8.0625 2.25 7.26563 2.57813 6.60938 3.23438C5.95313 3.89062 5.625 4.6875 5.625 5.625V7.875Z" fill="#313131"/>
</svg>
