<svg width="24" height="24" viewBox="0 0 24 24" fill="none" xmlns="http://www.w3.org/2000/svg">
<path d="M12 7.16668V13H17.8333M22.5047 4.33284L18.9288 1.33334M5.07467 1.33334L1.5 4.33284M12 22.3333C9.52465 22.3333 7.15068 21.35 5.40034 19.5997C3.65 17.8493 2.66667 15.4754 2.66667 13C2.66667 10.5247 3.65 8.15069 5.40034 6.40035C7.15068 4.65001 9.52465 3.66668 12 3.66668C14.4754 3.66668 16.8493 4.65001 18.5997 6.40035C20.35 8.15069 21.3333 10.5247 21.3333 13C21.3333 15.4754 20.35 17.8493 18.5997 19.5997C16.8493 21.35 14.4754 22.3333 12 22.3333Z" stroke="white" stroke-width="2" stroke-linecap="round" stroke-linejoin="round"/>
</svg>
