<svg width="34" height="34" viewBox="0 0 34 34" fill="none" xmlns="http://www.w3.org/2000/svg">
<circle cx="17" cy="17" r="16.5" transform="rotate(-90 17 17)" stroke="#026F2E"/>
<path d="M25.3711 26.2728C25.3711 23.4281 21.7958 21.1212 17.3862 21.1212C12.9766 21.1212 9.40137 23.4281 9.40137 26.2728M17.3862 18.0303C16.0626 18.0303 14.7933 17.4876 13.8574 16.5215C12.9215 15.5554 12.3957 14.2451 12.3957 12.8788C12.3957 11.5125 12.9215 10.2022 13.8574 9.23614C14.7933 8.27004 16.0626 7.72729 17.3862 7.72729C18.7098 7.72729 19.9791 8.27004 20.9151 9.23614C21.851 10.2022 22.3767 11.5125 22.3767 12.8788C22.3767 14.2451 21.851 15.5554 20.9151 16.5215C19.9791 17.4876 18.7098 18.0303 17.3862 18.0303Z" stroke="#003333" stroke-width="2" stroke-linecap="round" stroke-linejoin="round"/>
</svg>
