<svg width="38" height="38" viewBox="0 0 38 38" fill="none" xmlns="http://www.w3.org/2000/svg">
<path d="M23.6963 15.4783H14.3049C14.0924 15.4782 13.8839 15.5359 13.7015 15.6451C13.5192 15.7543 13.37 15.911 13.2697 16.0984C13.1694 16.2858 13.1219 16.4969 13.1322 16.7091C13.1426 16.9214 13.2103 17.1269 13.3283 17.3037L18.0239 24.3472C18.1311 24.508 18.2763 24.6398 18.4467 24.731C18.6171 24.8221 18.8074 24.8698 19.0006 24.8698C19.1938 24.8698 19.3841 24.8221 19.5545 24.731C19.7249 24.6398 19.8701 24.508 19.9773 24.3472L24.6729 17.3037C24.7909 17.1269 24.8586 16.9214 24.869 16.7091C24.8793 16.4969 24.8318 16.2858 24.7315 16.0984C24.6312 15.911 24.482 15.7543 24.2997 15.6451C24.1173 15.5359 23.9088 15.4782 23.6963 15.4783ZM19.0006 21.5791L16.4978 17.8261H21.5034L19.0006 21.5791Z" fill="white"/>
<path d="M19.0002 27.2174C17.1087 27.2147 15.276 26.5596 13.8115 25.3626L12.1445 27.0296C12.1797 27.0601 12.2114 27.0953 12.2478 27.1258C14.1452 28.7017 16.5338 29.5646 19.0002 29.5652C24.8263 29.5652 29.5654 24.825 29.5654 19H27.2176C27.2176 23.5313 23.5315 27.2174 19.0002 27.2174Z" fill="white"/>
<path d="M27.2179 15.4783C27.8662 15.4783 28.3918 14.9527 28.3918 14.3043C28.3918 13.656 27.8662 13.1304 27.2179 13.1304C26.5695 13.1304 26.0439 13.656 26.0439 14.3043C26.0439 14.9527 26.5695 15.4783 27.2179 15.4783Z" fill="white"/>
<path d="M10.7833 24.8696C11.4316 24.8696 11.9572 24.344 11.9572 23.6956C11.9572 23.0473 11.4316 22.5217 10.7833 22.5217C10.135 22.5217 9.60938 23.0473 9.60938 23.6956C9.60938 24.344 10.135 24.8696 10.7833 24.8696Z" fill="white"/>
<path d="M19.0008 10.7826C20.8908 10.7826 22.7303 11.4424 24.1918 12.6351L25.8564 10.9705C25.8118 10.9317 25.7731 10.8883 25.7273 10.8496C23.8329 9.28916 21.4551 8.43557 19.0008 8.43481C13.1746 8.43481 8.43555 13.1751 8.43555 19H10.7834C10.7834 14.4687 14.4695 10.7826 19.0008 10.7826Z" fill="white"/>
<path d="M19.0002 35.4348C9.9376 35.4348 2.56543 28.0626 2.56543 19C2.56543 9.93742 9.9376 2.56525 19.0002 2.56525C28.0628 2.56525 35.435 9.93742 35.435 19C35.435 28.0626 28.0628 35.4348 19.0002 35.4348ZM19.0002 4.91307C11.2324 4.91307 4.91326 11.2322 4.91326 19C4.91326 26.7678 11.2324 33.087 19.0002 33.087C26.768 33.087 33.0872 26.7678 33.0872 19C33.0872 11.2322 26.768 4.91307 19.0002 4.91307Z" fill="white"/>
</svg>
