<svg width="33" height="32" viewBox="0 0 33 32" fill="none" xmlns="http://www.w3.org/2000/svg">
<path d="M10.5 23C11.6046 23 12.5 22.1046 12.5 21C12.5 19.8954 11.6046 19 10.5 19C9.39543 19 8.5 19.8954 8.5 21C8.5 22.1046 9.39543 23 10.5 23Z" fill="white"/>
<path d="M23.5 22C24.6046 22 25.5 21.1046 25.5 20C25.5 18.8954 24.6046 18 23.5 18C22.3954 18 21.5 18.8954 21.5 20C21.5 21.1046 22.3954 22 23.5 22Z" fill="white"/>
<path d="M13.5 12C14.6046 12 15.5 11.1046 15.5 10C15.5 8.89543 14.6046 8 13.5 8C12.3954 8 11.5 8.89543 11.5 10C11.5 11.1046 12.3954 12 13.5 12Z" fill="white"/>
<path d="M14.5 16C15.0523 16 15.5 15.5523 15.5 15C15.5 14.4477 15.0523 14 14.5 14C13.9477 14 13.5 14.4477 13.5 15C13.5 15.5523 13.9477 16 14.5 16Z" fill="white"/>
<path d="M23.5 7C24.6046 7 25.5 6.10457 25.5 5C25.5 3.89543 24.6046 3 23.5 3C22.3954 3 21.5 3.89543 21.5 5C21.5 6.10457 22.3954 7 23.5 7Z" fill="white"/>
<path d="M29.5 4C30.0523 4 30.5 3.55228 30.5 3C30.5 2.44772 30.0523 2 29.5 2C28.9477 2 28.5 2.44772 28.5 3C28.5 3.55228 28.9477 4 29.5 4Z" fill="white"/>
<path d="M16.5 24C17.0523 24 17.5 23.5523 17.5 23C17.5 22.4477 17.0523 22 16.5 22C15.9477 22 15.5 22.4477 15.5 23C15.5 23.5523 15.9477 24 16.5 24Z" fill="white"/>
<path d="M16.5 30C8.8 30 2.5 23.7 2.5 16C2.5 8.3 8.8 2 16.5 2H16.8L18.2 2.1L17.9 3.3C17.8 3.7 17.7 4.2 17.7 4.6C17.7 7.4 19.9 9.6 22.7 9.6C23.7 9.6 24.7 9.3 25.6 8.7L26.9 10.2C26.5 10.6 26.3 11.1 26.3 11.6C26.3 12.9 27.6 14 29 13.5L30.2 13L30.4 14.3C30.5 14.9 30.5 15.5 30.5 16C30.5 23.7 24.2 30 16.5 30ZM15.8 4C9.5 4.4 4.5 9.6 4.5 16C4.5 22.6 9.9 28 16.5 28C23.1 28 28.5 22.6 28.5 16V15.6C26.2 15.7 24.3 13.9 24.3 11.6V11.4C23.8 11.5 23.3 11.6 22.7 11.6C18.8 11.6 15.7 8.5 15.7 4.6C15.7 4.4 15.7 4.2 15.8 4Z" fill="white"/>
</svg>
