<svg width="32" height="32" viewBox="0 0 32 32" fill="none" xmlns="http://www.w3.org/2000/svg">
<path d="M28 12C29.1046 12 30 11.1046 30 10C30 8.89543 29.1046 8 28 8C26.8954 8 26 8.89543 26 10C26 11.1046 26.8954 12 28 12Z" fill="white"/>
<path d="M18 29H11V27H18C22.963 27 27 22.963 27 18V14H29V18C29 24.065 24.065 29 18 29Z" fill="white"/>
<path d="M16 21C13.243 21 11 18.757 11 16C11 13.243 13.243 11 16 11C18.757 11 21 13.243 21 16C21 18.757 18.757 21 16 21ZM16 13C14.346 13 13 14.346 13 16C13 17.654 14.346 19 16 19C17.654 19 19 17.654 19 16C19 14.346 17.654 13 16 13Z" fill="white"/>
<path d="M4 24C5.10457 24 6 23.1046 6 22C6 20.8954 5.10457 20 4 20C2.89543 20 2 20.8954 2 22C2 23.1046 2.89543 24 4 24Z" fill="white"/>
<path d="M5 18H3V14C3 7.935 7.935 3 14 3H21V5H14C9.037 5 5 9.037 5 14V18Z" fill="white"/>
</svg>
