<svg width="20" height="16" viewBox="0 0 20 16" fill="none" xmlns="http://www.w3.org/2000/svg">
<path d="M1 7V11.8C1 12.92 1 13.48 1.218 13.908C1.40974 14.2843 1.71569 14.5903 2.092 14.782C2.519 15 3.079 15 4.197 15H15.803C16.921 15 17.48 15 17.907 14.782C18.284 14.59 18.59 14.284 18.782 13.908C19 13.48 19 12.922 19 11.804V7M1 7V5M1 7H19M19 7V5M1 5V4.2C1 3.08 1 2.52 1.218 2.092C1.41 1.715 1.715 1.41 2.092 1.218C2.52 1 3.08 1 4.2 1H15.8C16.92 1 17.48 1 17.907 1.218C18.284 1.41 18.59 1.715 18.782 2.092C19 2.519 19 3.079 19 4.197V5M1 5H19M5 11H9" stroke="#026F2E" stroke-width="2" stroke-linecap="round" stroke-linejoin="round"/>
</svg>
