<svg width="29" height="29" viewBox="0 0 29 29" fill="none" xmlns="http://www.w3.org/2000/svg">
<g clip-path="url(#clip0_634_554)">
<path d="M25.8417 22.4186C25.0752 21.7261 24.4042 20.9322 23.8466 20.0583C23.2379 18.8521 22.8731 17.5347 22.7735 16.1836V12.2042C22.7788 10.082 22.0192 8.03097 20.6375 6.43637C19.2558 4.84177 17.3471 3.81339 15.2699 3.54445V2.50528C15.2699 2.22006 15.1581 1.94653 14.9591 1.74485C14.7601 1.54317 14.4902 1.42986 14.2088 1.42986C13.9273 1.42986 13.6574 1.54317 13.4584 1.74485C13.2594 1.94653 13.1476 2.22006 13.1476 2.50528V3.56056C11.0891 3.84889 9.20345 4.88349 7.83989 6.47273C6.47633 8.06197 5.72728 10.0982 5.73147 12.2042V16.1836C5.63192 17.5347 5.26709 18.8521 4.65839 20.0583C4.11063 20.9302 3.45034 21.724 2.69506 22.4186C2.61027 22.4941 2.54232 22.587 2.49572 22.6912C2.44912 22.7954 2.42495 22.9084 2.4248 23.0228V24.1183C2.4248 24.332 2.50855 24.5369 2.65762 24.688C2.80668 24.839 3.00886 24.9239 3.21968 24.9239H25.3171C25.5279 24.9239 25.7301 24.839 25.8792 24.688C26.0282 24.5369 26.112 24.332 26.112 24.1183V23.0228C26.1118 22.9084 26.0877 22.7954 26.0411 22.6912C25.9945 22.587 25.9265 22.4941 25.8417 22.4186ZM4.07814 23.3128C4.81769 22.5888 5.46884 21.7774 6.01763 20.8961C6.78437 19.4392 7.23174 17.8318 7.32916 16.1836V12.2042C7.29764 11.2601 7.4539 10.3192 7.78864 9.43762C8.12337 8.55602 8.62974 7.75169 9.27759 7.07254C9.92544 6.39339 10.7015 5.8533 11.5596 5.48444C12.4177 5.11559 13.3403 4.9255 14.2724 4.9255C15.2045 4.9255 16.127 5.11559 16.9851 5.48444C17.8432 5.8533 18.6193 6.39339 19.2671 7.07254C19.915 7.75169 20.4214 8.55602 20.7561 9.43762C21.0908 10.3192 21.2471 11.2601 21.2156 12.2042V16.1836C21.313 17.8318 21.7604 19.4392 22.5271 20.8961C23.0759 21.7774 23.727 22.5888 24.4666 23.3128H4.07814Z" fill="#026F2E"/>
<path d="M14.308 27.6144C14.8087 27.6028 15.2892 27.412 15.6645 27.0759C16.0398 26.7397 16.2857 26.2799 16.3588 25.7778H12.1777C12.2528 26.2936 12.5102 26.7642 12.9021 27.102C13.294 27.4399 13.7936 27.622 14.308 27.6144Z" fill="#026F2E"/>
</g>
<defs>
<clipPath id="clip0_634_554">
<rect width="28.6154" height="29" fill="white"/>
</clipPath>
</defs>
</svg>
