<svg width="25" height="22" viewBox="0 0 25 22" fill="none" xmlns="http://www.w3.org/2000/svg">
<path d="M7.04769 18.189C8.53998 19.4255 10.3802 20.1669 12.3129 20.3101C14.2456 20.4534 16.175 19.9914 17.8333 18.9884C19.4916 17.9853 20.7965 16.491 21.5669 14.7126C22.3373 12.9343 22.5351 10.9603 22.1327 9.06451M7.04769 18.189C9.32853 17.6675 12.0434 16.579 14.7804 14.9993C17.9654 13.1607 20.5565 11.0152 22.1327 9.06451M7.04769 18.189C4.21269 18.8365 2.04736 18.6113 1.33336 17.3747C0.59836 16.1018 1.56203 14.0298 3.66669 11.8272M22.1327 9.06451C21.8235 7.60774 21.1702 6.24494 20.2274 5.09219C19.2845 3.93943 18.0796 3.02902 16.7131 2.43701C15.3466 1.84499 13.8583 1.58856 12.3724 1.68912C10.8866 1.78969 9.44645 2.24434 8.1722 3.0151C6.89795 3.78586 5.82664 4.85034 5.04775 6.11963C4.26886 7.38892 3.80501 8.82617 3.69494 10.3113C3.58487 11.7965 3.83178 13.2864 4.41504 14.6566C4.99831 16.0269 5.90099 17.2377 7.04769 18.1878M22.1327 9.06451C23.5934 7.25617 24.1814 5.61467 23.5607 4.54134C22.9319 3.45284 21.1772 3.14717 18.8334 3.53217" stroke="white" stroke-width="2" stroke-linecap="round" stroke-linejoin="round"/>
</svg>
