<svg width="11" height="12" viewBox="0 0 11 12" fill="none" xmlns="http://www.w3.org/2000/svg">
<path d="M2.28571 11V1.87667C2.28567 1.68277 2.33531 1.49435 2.42683 1.34099C2.51836 1.18763 2.64659 1.07802 2.79138 1.02938C2.93618 0.98074 3.08933 0.995821 3.2268 1.07226C3.36426 1.14869 3.47825 1.28215 3.55086 1.45167L7.44914 10.5483C7.52175 10.7179 7.63574 10.8513 7.7732 10.9277C7.91067 11.0042 8.06382 11.0193 8.20862 10.9706C8.35341 10.922 8.48164 10.8124 8.57317 10.659C8.66469 10.5057 8.71433 10.3172 8.71429 10.1233V1M1 4.33333H10M1 7.66667H10" stroke="#003333" stroke-width="2" stroke-linecap="round" stroke-linejoin="round"/>
</svg>
