<svg width="33" height="33" viewBox="0 0 33 33" fill="none" xmlns="http://www.w3.org/2000/svg">
<circle cx="16.5" cy="16.5" r="16.5" transform="rotate(-90 16.5 16.5)" fill="#026F2E"/>
<path d="M20 15.7837L17 18.7837L14 15.7837M26 16.7837C26 15.6018 25.7672 14.4315 25.3149 13.3395C24.8626 12.2476 24.1997 11.2555 23.364 10.4197C22.5282 9.584 21.5361 8.92107 20.4442 8.46878C19.3522 8.01648 18.1819 7.78369 17 7.78369C15.8181 7.78369 14.6478 8.01648 13.5558 8.46878C12.4639 8.92107 11.4718 9.584 10.636 10.4197C9.80031 11.2555 9.13738 12.2476 8.68508 13.3395C8.23279 14.4315 8 15.6018 8 16.7837C8 19.1706 8.94821 21.4598 10.636 23.1477C12.3239 24.8355 14.6131 25.7837 17 25.7837C19.3869 25.7837 21.6761 24.8355 23.364 23.1477C25.0518 21.4598 26 19.1706 26 16.7837Z" stroke="white" stroke-width="2" stroke-linecap="round" stroke-linejoin="round"/>
</svg>
