<svg width="24" height="25" viewBox="0 0 24 25" fill="none" xmlns="http://www.w3.org/2000/svg">
<path d="M8.29167 3.29168L5.66667 3.29168C4.03333 3.29168 3.21667 3.29168 2.5925 3.60959C2.04366 3.88914 1.59746 4.33534 1.31792 4.88418C1 5.50834 1 6.32501 1 7.95834L1 19.0417C1 20.675 1 21.4917 1.31792 22.1158C1.59754 22.6646 2.04372 23.1108 2.5925 23.3904C3.21521 23.7083 4.03187 23.7083 5.66229 23.7083L16.7544 23.7083C18.3848 23.7083 19.2 23.7083 19.8227 23.3904C20.3725 23.1104 20.8187 22.6642 21.0987 22.1158C21.4167 21.4917 21.4167 20.6765 21.4167 19.0461L21.4167 16.4167M22.875 9.12501L22.875 1.83334M22.875 1.83334L15.5833 1.83334M22.875 1.83334L12.6667 12.0417" stroke="#003333" stroke-width="2" stroke-linecap="round" stroke-linejoin="round"/>
</svg>
