<svg width="29" height="29" viewBox="0 0 29 29" fill="none" xmlns="http://www.w3.org/2000/svg">
<path d="M10.3379 10.2329C10.5861 9.46472 11.0422 8.78025 11.6555 8.25535C12.2689 7.73045 13.0156 7.38562 13.8129 7.25907C14.6102 7.13253 15.427 7.22921 16.1728 7.53841C16.9185 7.8476 17.5641 8.35724 18.0379 9.01083C18.5124 9.66348 18.7971 10.4346 18.8606 11.239C18.9241 12.0434 18.7639 12.8496 18.3978 13.5686C18.0316 14.2877 17.4738 14.8914 16.7859 15.3131C16.098 15.7349 15.3069 15.9582 14.5 15.9583L14.5 17.4167M14.5 27.625C12.7764 27.625 11.0697 27.2855 9.47728 26.6259C7.88488 25.9663 6.43799 24.9995 5.21922 23.7808C4.00045 22.562 3.03367 21.1151 2.37408 19.5227C1.71449 17.9303 1.375 16.2236 1.375 14.5C1.375 12.7764 1.71449 11.0697 2.37408 9.47728C3.03367 7.88488 4.00045 6.43799 5.21922 5.21922C6.43799 4.00045 7.88488 3.03367 9.47728 2.37408C11.0697 1.71449 12.7764 1.375 14.5 1.375C17.981 1.375 21.3194 2.75781 23.7808 5.21922C26.2422 7.68064 27.625 11.019 27.625 14.5C27.625 17.981 26.2422 21.3194 23.7808 23.7808C21.3194 26.2422 17.981 27.625 14.5 27.625ZM14.5729 21.7917L14.5729 21.9375L14.4271 21.9375L14.4271 21.7917L14.5729 21.7917Z" stroke="#026F2E" stroke-width="2" stroke-linecap="round" stroke-linejoin="round"/>
</svg>
