<svg width="33" height="33" viewBox="0 0 33 33" fill="none" xmlns="http://www.w3.org/2000/svg">
<circle cx="16.5" cy="16.5" r="16.5" transform="rotate(-90 16.5 16.5)" fill="#026F2E"/>
<path d="M19 19.7837C19 20.0489 19.1054 20.3033 19.2929 20.4908C19.4804 20.6783 19.7348 20.7837 20 20.7837C20.2652 20.7837 20.5196 20.6783 20.7071 20.4908C20.8946 20.3033 21 20.0489 21 19.7837C21 19.5185 20.8946 19.2641 20.7071 19.0766C20.5196 18.889 20.2652 18.7837 20 18.7837C19.7348 18.7837 19.4804 18.889 19.2929 19.0766C19.1054 19.2641 19 19.5185 19 19.7837ZM13 19.7837C13 20.0489 13.1054 20.3033 13.2929 20.4908C13.4804 20.6783 13.7348 20.7837 14 20.7837C14.2652 20.7837 14.5196 20.6783 14.7071 20.4908C14.8946 20.3033 15 20.0489 15 19.7837C15 19.5185 14.8946 19.2641 14.7071 19.0766C14.5196 18.889 14.2652 18.7837 14 18.7837C13.7348 18.7837 13.4804 18.889 13.2929 19.0766C13.1054 19.2641 13 19.5185 13 19.7837ZM19 13.7837C19 14.0489 19.1054 14.3033 19.2929 14.4908C19.4804 14.6783 19.7348 14.7837 20 14.7837C20.2652 14.7837 20.5196 14.6783 20.7071 14.4908C20.8946 14.3033 21 14.0489 21 13.7837C21 13.5185 20.8946 13.2641 20.7071 13.0766C20.5196 12.889 20.2652 12.7837 20 12.7837C19.7348 12.7837 19.4804 12.889 19.2929 13.0766C19.1054 13.2641 19 13.5185 19 13.7837ZM13 13.7837C13 14.0489 13.1054 14.3033 13.2929 14.4908C13.4804 14.6783 13.7348 14.7837 14 14.7837C14.2652 14.7837 14.5196 14.6783 14.7071 14.4908C14.8946 14.3033 15 14.0489 15 13.7837C15 13.5185 14.8946 13.2641 14.7071 13.0766C14.5196 12.889 14.2652 12.7837 14 12.7837C13.7348 12.7837 13.4804 12.889 13.2929 13.0766C13.1054 13.2641 13 13.5185 13 13.7837Z" stroke="white" stroke-width="2" stroke-linecap="round" stroke-linejoin="round"/>
</svg>
