<svg width="24" height="24" viewBox="0 0 24 24" fill="none" xmlns="http://www.w3.org/2000/svg">
<path d="M8.67033 8.58633C8.8689 7.97178 9.23373 7.4242 9.72442 7.00428C10.2151 6.58436 10.8125 6.30849 11.4503 6.20726C12.0882 6.10602 12.7416 6.18337 13.3382 6.43073C13.9348 6.67808 14.4512 7.08579 14.8303 7.60867C15.2099 8.13079 15.4377 8.7477 15.4885 9.3912C15.5393 10.0347 15.4111 10.6797 15.1182 11.2549C14.8253 11.8301 14.379 12.3131 13.8287 12.6505C13.2784 12.9879 12.6455 13.1665 12 13.1667V14.3333M12 22.5C10.6211 22.5 9.25574 22.2284 7.98182 21.7007C6.70791 21.1731 5.55039 20.3996 4.57538 19.4246C3.60036 18.4496 2.82694 17.2921 2.29927 16.0182C1.77159 14.7443 1.5 13.3789 1.5 12C1.5 10.6211 1.77159 9.25574 2.29927 7.98182C2.82694 6.70791 3.60036 5.55039 4.57538 4.57538C5.55039 3.60036 6.70791 2.82694 7.98182 2.29926C9.25574 1.77159 10.6211 1.5 12 1.5C14.7848 1.5 17.4555 2.60625 19.4246 4.57538C21.3938 6.54451 22.5 9.21523 22.5 12C22.5 14.7848 21.3938 17.4555 19.4246 19.4246C17.4555 21.3938 14.7848 22.5 12 22.5ZM12.0583 17.8333V17.95H11.9417V17.8333H12.0583Z" stroke="white" stroke-width="2" stroke-linecap="round" stroke-linejoin="round"/>
</svg>
