<svg width="22" height="26" viewBox="0 0 22 26" fill="none" xmlns="http://www.w3.org/2000/svg">
<path d="M7.5375 9.25H5C3.6 9.25 2.9 9.25 2.365 9.5225C1.89456 9.76211 1.51211 10.1446 1.2725 10.615C1 11.15 1 11.85 1 13.25V20.25C1 21.65 1 22.35 1.2725 22.885C1.51218 23.3554 1.89462 23.7378 2.365 23.9775C2.89875 24.25 3.59875 24.25 4.99625 24.25H17.0037C18.4012 24.25 19.1 24.25 19.6337 23.9775C20.105 23.7375 20.4875 23.355 20.7275 22.885C21 22.35 21 21.6525 21 20.255V13.2462C21 11.8487 21 11.1487 20.7275 10.615C20.4874 10.1445 20.1045 9.76204 19.6337 9.5225C19.1 9.25 18.4 9.25 17 9.25H14.4625M7.5375 9.25H14.4613C14.4991 9.25016 14.5366 9.24285 14.5717 9.22848C14.6067 9.2141 14.6385 9.19295 14.6654 9.16624C14.6922 9.13952 14.7135 9.10777 14.728 9.07281C14.7425 9.03785 14.75 9.00036 14.75 8.9625V5.5C14.75 4.50544 14.3549 3.55161 13.6517 2.84835C12.9484 2.14509 11.9946 1.75 11 1.75C10.0054 1.75 9.05161 2.14509 8.34835 2.84835C7.64509 3.55161 7.25 4.50544 7.25 5.5V8.9625C7.25 9.03875 7.28029 9.11188 7.33421 9.16579C7.38812 9.21971 7.46125 9.25 7.5375 9.25Z" stroke="#026F2E" stroke-width="2" stroke-linecap="round" stroke-linejoin="round"/>
</svg>
