<svg width="41" height="45" viewBox="0 0 41 45" fill="none" xmlns="http://www.w3.org/2000/svg">
<path d="M33.3302 5.87127C33.1535 5.87127 32.9768 5.8271 32.8223 5.73877C28.5823 3.55252 24.9164 2.62502 20.5218 2.62502C16.1493 2.62502 11.9977 3.66294 8.22143 5.73877C7.69143 6.02585 7.02893 5.8271 6.71976 5.2971C6.58204 5.03883 6.55115 4.73683 6.63374 4.45602C6.71633 4.17521 6.9058 3.93802 7.16143 3.79544C11.2689 1.56502 15.7739 0.416687 20.5218 0.416687C25.2256 0.416687 29.3331 1.4546 33.8381 3.77335C34.3902 4.06044 34.5889 4.72294 34.3018 5.25294C34.2145 5.43703 34.077 5.59273 33.9051 5.70212C33.7332 5.8115 33.5339 5.87014 33.3302 5.87127ZM1.72893 17.465C1.52537 17.4669 1.32526 17.4124 1.1508 17.3075C0.976342 17.2026 0.83435 17.0514 0.740577 16.8707C0.646803 16.69 0.604913 16.4869 0.619553 16.2839C0.634192 16.0808 0.704789 15.8858 0.823513 15.7204C3.00976 12.6288 5.79226 10.1996 9.10476 8.49919C16.0389 4.92169 24.9164 4.8996 31.8727 8.4771C35.1852 10.1775 37.9677 12.5846 40.1539 15.6542C40.2387 15.7729 40.299 15.9071 40.3316 16.0493C40.3641 16.1914 40.3682 16.3386 40.3436 16.4823C40.3189 16.6261 40.2661 16.7635 40.188 16.8867C40.11 17.0098 40.0084 17.1163 39.8889 17.2C39.381 17.5534 38.6964 17.4429 38.3431 16.935C36.4092 14.1975 33.8404 11.9697 30.8568 10.4425C24.5189 7.19627 16.4143 7.19627 10.0985 10.4646C7.09518 12.0104 4.57768 14.2188 2.59018 17.0013C2.41351 17.3104 2.08226 17.465 1.72893 17.465ZM15.531 44.1196C15.3862 44.1214 15.2426 44.0928 15.1095 44.0358C14.9764 43.9787 14.8567 43.8944 14.7581 43.7884C12.8368 41.8671 11.7989 40.6304 10.3193 37.9584C8.7956 35.2421 8.0006 31.9296 8.0006 28.3742C8.0006 21.8154 13.6098 16.4713 20.4998 16.4713C27.3898 16.4713 32.9989 21.8154 32.9989 28.3742C32.9989 28.9925 32.5131 29.4784 31.8948 29.4784C31.2764 29.4784 30.7906 28.9925 30.7906 28.3742C30.7906 23.03 26.1752 18.6796 20.4998 18.6796C14.8243 18.6796 10.2089 23.03 10.2089 28.3742C10.2089 31.5542 10.9156 34.4913 12.2627 36.8763C13.676 39.4159 14.6477 40.4979 16.3481 42.2204C16.7677 42.6621 16.7677 43.3467 16.3481 43.7884C16.1052 44.0092 15.8181 44.1196 15.531 44.1196ZM31.3648 40.0342C28.7368 40.0342 26.4181 39.3717 24.5189 38.0688C21.2285 35.8384 19.2631 32.2167 19.2631 28.3742C19.2631 27.7559 19.7489 27.27 20.3673 27.27C20.9856 27.27 21.4714 27.7559 21.4714 28.3742C21.4714 31.4879 23.0614 34.425 25.7556 36.2359C27.3235 37.2959 29.1564 37.8038 31.3648 37.8038C31.8948 37.8038 32.7781 37.7375 33.6614 37.5829C34.2577 37.4725 34.8319 37.87 34.9423 38.4884C35.0527 39.0846 34.6552 39.6588 34.0368 39.7692C32.7781 40.0121 31.6739 40.0342 31.3648 40.0342ZM26.926 44.5834C26.8377 44.5834 26.7273 44.5613 26.6389 44.5392C23.1277 43.5675 20.831 42.2646 18.4239 39.9017C16.8986 38.3956 15.6891 36.6002 14.8662 34.6208C14.0434 32.6415 13.6237 30.5178 13.6318 28.3742C13.6318 24.7967 16.6793 21.8817 20.4335 21.8817C24.1877 21.8817 27.2352 24.7967 27.2352 28.3742C27.2352 30.7371 29.2889 32.6584 31.8285 32.6584C34.3681 32.6584 36.4218 30.7371 36.4218 28.3742C36.4218 20.0488 29.2448 13.2913 20.4114 13.2913C14.1398 13.2913 8.3981 16.7804 5.81435 22.1909C4.9531 23.9796 4.51143 26.0775 4.51143 28.3742C4.51143 30.0967 4.66601 32.8129 5.99101 36.3463C6.21185 36.9204 5.92476 37.5609 5.3506 37.7596C4.77643 37.9804 4.13601 37.6713 3.93726 37.1192C2.87315 34.3263 2.32687 31.3629 2.32518 28.3742C2.32518 25.7242 2.8331 23.3171 3.82685 21.2192C6.76393 15.0579 13.2785 11.0609 20.4114 11.0609C30.4593 11.0609 38.6302 18.8121 38.6302 28.3521C38.6302 31.9296 35.5827 34.8446 31.8285 34.8446C28.0743 34.8446 25.0268 31.9296 25.0268 28.3521C25.0268 25.9892 22.9731 24.0679 20.4335 24.0679C17.8939 24.0679 15.8402 25.9892 15.8402 28.3521C15.8402 32.1284 17.2977 35.6617 19.9698 38.3117C22.0677 40.3875 24.0773 41.5359 27.191 42.3971C27.7873 42.5517 28.1185 43.17 27.9639 43.7442C27.8535 44.2521 27.3898 44.5834 26.926 44.5834Z" fill="#002911"/>
</svg>
