<svg width="19" height="19" viewBox="0 0 19 19" fill="none" xmlns="http://www.w3.org/2000/svg">
<path d="M9.5 12.5L12.5 9.5M12.5 9.5L9.5 6.5M12.5 9.5H1.5M6.5 4.749V4.7C6.5 3.58 6.5 3.02 6.718 2.592C6.91 2.215 7.215 1.91 7.592 1.718C8.02 1.5 8.58 1.5 9.7 1.5H14.3C15.42 1.5 15.98 1.5 16.407 1.718C16.784 1.91 17.09 2.215 17.282 2.592C17.5 3.019 17.5 3.579 17.5 4.697V14.304C17.5 15.422 17.5 15.981 17.282 16.408C17.0899 16.7844 16.7836 17.0903 16.407 17.282C15.98 17.5 15.421 17.5 14.303 17.5H9.697C8.579 17.5 8.019 17.5 7.592 17.282C7.21569 17.0903 6.90974 16.7843 6.718 16.408C6.5 15.98 6.5 15.42 6.5 14.3V14.25" stroke="white" stroke-width="2" stroke-linecap="round" stroke-linejoin="round"/>
</svg>
