<svg width="29" height="28" viewBox="0 0 29 28" fill="none" xmlns="http://www.w3.org/2000/svg">
<path d="M2.83333 10.5833L11.7408 17.3092L11.7437 17.3121C12.7325 18.0369 13.2269 18.4 13.7694 18.54C14.2486 18.664 14.7514 18.664 15.2306 18.54C15.7731 18.4 16.269 18.0354 17.2606 17.3092L26.1667 10.5833M25.875 9.18332L17.7098 2.64561C16.6963 1.83332 16.1888 1.42791 15.6244 1.26603C15.1267 1.12408 14.6002 1.11704 14.099 1.24561C13.5317 1.39145 13.014 1.78228 11.9785 2.56541L3.22708 9.18332C2.5475 9.69666 2.20771 9.95332 1.96271 10.2771C1.74585 10.5647 1.58417 10.8901 1.48583 11.2367C1.375 11.6275 1.375 12.0533 1.375 12.905L1.375 21.9583C1.375 23.5917 1.375 24.4083 1.69292 25.0325C1.97292 25.5823 2.41771 26.0271 2.9675 26.3071C3.59021 26.625 4.40688 26.625 6.03729 26.625L22.9627 26.625C24.5931 26.625 25.4083 26.625 26.031 26.3071C26.5808 26.0271 27.0271 25.5808 27.3071 25.0325C27.625 24.4098 27.625 23.5931 27.625 21.9627L27.625 12.8087C27.625 11.9964 27.625 11.5881 27.5215 11.2104C27.428 10.8738 27.2748 10.5567 27.0694 10.2742C26.8375 9.95332 26.5181 9.69665 25.875 9.18186L25.875 9.18332Z" stroke="#026F2E" stroke-width="2" stroke-linecap="round" stroke-linejoin="round"/>
</svg>
