<svg width="21" height="18" viewBox="0 0 21 18" fill="none" xmlns="http://www.w3.org/2000/svg">
<path d="M4.04134 17V2.40267C4.04125 2.09243 4.14099 1.79095 4.32489 1.54558C4.50879 1.30021 4.76643 1.12483 5.05736 1.04701C5.34829 0.969185 5.65602 0.993314 5.93222 1.11561C6.20843 1.2379 6.43746 1.45143 6.58334 1.72267L14.416 16.2773C14.5619 16.5486 14.7909 16.7621 15.0671 16.8844C15.3433 17.0067 15.6511 17.0308 15.942 16.953C16.2329 16.8752 16.4906 16.6998 16.6745 16.4544C16.8584 16.209 16.9581 15.9076 16.958 15.5973V1M1.45801 6.33333H19.5413M1.45801 11.6667H19.5413" stroke="white" stroke-width="2" stroke-linecap="round" stroke-linejoin="round"/>
</svg>
