<svg width="33" height="33" viewBox="0 0 33 33" fill="none" xmlns="http://www.w3.org/2000/svg">
<circle cx="16.5" cy="16.5" r="16" transform="rotate(-90 16.5 16.5)" fill="#026F2E" stroke="white"/>
<path d="M25 26C25 23.239 21.418 21 17 21C12.582 21 9 23.239 9 26M17 18C15.6739 18 14.4021 17.4732 13.4645 16.5355C12.5268 15.5979 12 14.3261 12 13C12 11.6739 12.5268 10.4021 13.4645 9.46447C14.4021 8.52678 15.6739 8 17 8C18.3261 8 19.5979 8.52678 20.5355 9.46447C21.4732 10.4021 22 11.6739 22 13C22 14.3261 21.4732 15.5979 20.5355 16.5355C19.5979 17.4732 18.3261 18 17 18Z" stroke="white" stroke-width="2" stroke-linecap="round" stroke-linejoin="round"/>
</svg>
