<svg width="27" height="21" viewBox="0 0 27 21" fill="none" xmlns="http://www.w3.org/2000/svg">
<path d="M24.75 0H7.875C7.09875 0 6.49125 0.39375 6.08625 0.99L0 10.125L6.08625 19.2488C6.49125 19.845 7.09875 20.25 7.875 20.25H24.75C25.3467 20.25 25.919 20.0129 26.341 19.591C26.7629 19.169 27 18.5967 27 18V2.25C27 1.65326 26.7629 1.08097 26.341 0.65901C25.919 0.237053 25.3467 0 24.75 0ZM21.375 14.1637L19.7887 15.75L15.75 11.7113L11.7113 15.75L10.125 14.1637L14.1637 10.125L10.125 6.08625L11.7113 4.5L15.75 8.53875L19.7887 4.5L21.375 6.08625L17.3363 10.125" fill="#999999"/>
</svg>
