<svg width="80" height="80" viewBox="0 0 80 80" fill="none" xmlns="http://www.w3.org/2000/svg">
<path d="M33.3327 26.6667H16.666V10M17.636 54.5233C20.7422 59.3063 25.3 62.9675 30.6402 64.9693C35.9804 66.9712 41.8217 67.2082 47.3066 65.6457C52.7915 64.0831 57.6309 60.8033 61.1144 56.2877C64.598 51.7722 66.542 46.2587 66.6613 40.5569C66.7805 34.855 65.0686 29.2652 61.7769 24.6079C58.4851 19.9507 53.787 16.4714 48.3723 14.681C42.9575 12.8905 37.1114 12.8832 31.6921 14.6601C26.2729 16.4369 21.5661 19.9044 18.2627 24.5533" stroke="#003333" stroke-width="2" stroke-linecap="round" stroke-linejoin="round"/>
<path d="M7.61905 5C7.61905 2.23875 9.89333 0 12.6984 0C15.5035 0 17.7778 2.23875 17.7778 5C17.7778 7.76125 15.5035 10 12.6984 10C9.89333 10 7.61905 7.76125 7.61905 5ZM9.52381 80C11.9784 80 13.9683 78.0412 13.9683 75.625C13.9683 73.2088 11.9784 71.25 9.52381 71.25C7.06921 71.25 5.07937 73.2088 5.07937 75.625C5.07937 78.0412 7.06921 80 9.52381 80ZM73.0159 31.25H60.3175C57.8629 31.25 55.873 33.2088 55.873 35.625C55.873 38.0412 57.8629 40 60.3175 40H62.2222C65.0273 40 67.3016 42.2387 67.3016 45C67.3016 47.7613 65.0273 50 62.2222 50H61.5873C59.8337 50 58.4127 51.3987 58.4127 53.125C58.4127 54.8513 59.8337 56.25 61.5873 56.25H68.5714C71.3765 56.25 73.6508 58.4887 73.6508 61.25C73.6508 64.0113 71.3765 66.25 68.5714 66.25H58.4127C57.0095 66.25 55.873 67.3687 55.873 68.75C55.873 70.1313 57.0095 71.25 58.4127 71.25H59.0476C61.5022 71.25 63.4921 73.2088 63.4921 75.625C63.4921 78.0412 61.5022 80 59.0476 80H22.2222C19.7676 80 17.7778 78.0412 17.7778 75.625C17.7778 73.2088 19.7676 71.25 22.2222 71.25C23.9759 71.25 25.3968 69.8513 25.3968 68.125C25.3968 66.3987 23.9759 65 22.2222 65H11.4286C8.62349 65 6.34921 62.7613 6.34921 60C6.34921 57.2387 8.62349 55 11.4286 55H17.1429C19.5975 55 21.5873 53.0412 21.5873 50.625C21.5873 48.2088 19.5975 46.25 17.1429 46.25H6.34921C2.84317 46.25 0 43.4512 0 40C0 36.5488 2.84317 33.75 6.34921 33.75H10.1587C12.2629 33.75 13.9683 32.0712 13.9683 30C13.9683 27.9288 12.2629 26.25 10.1587 26.25H6.98413C4.52952 26.25 2.53968 24.2912 2.53968 21.875C2.53968 19.4588 4.52952 17.5 6.98413 17.5H30.4762C32.5803 17.5 34.2857 15.8212 34.2857 13.75C34.2857 11.6788 32.5803 10 30.4762 10H27.9365C25.1314 10 22.8571 7.76125 22.8571 5C22.8571 2.23875 25.1314 0 27.9365 0H58.4127C61.2178 0 63.4921 2.23875 63.4921 5C63.4921 7.76125 61.2178 10 58.4127 10H55.873C53.0679 10 50.7937 12.2387 50.7937 15C50.7937 17.7613 53.0679 20 55.873 20H73.0159C76.1714 20 78.7302 22.5188 78.7302 25.625C78.7302 28.7312 76.1714 31.25 73.0159 31.25ZM80 45C80 42.2387 77.7257 40 74.9206 40C72.1156 40 69.8413 42.2387 69.8413 45C69.8413 47.7613 72.1156 50 74.9206 50C77.7257 50 80 47.7613 80 45Z" fill="#026F2E" fill-opacity="0.1"/>
</svg>
