<svg width="26" height="26" viewBox="0 0 26 26" fill="none" xmlns="http://www.w3.org/2000/svg">
<path d="M1.44336 24.1667L24.7767 24.1667M1.44336 24.1667L1.44336 18.3333L13.11 6.66666L17.294 2.4827L17.2954 2.48124C17.8715 1.9052 18.1602 1.61645 18.4927 1.50853C18.7856 1.41338 19.1011 1.41337 19.394 1.50853C19.7265 1.61645 20.0138 1.9052 20.5898 2.47978L23.1273 5.01728C23.7048 5.59478 23.9936 5.88353 24.1015 6.21603C24.1966 6.50891 24.1966 6.8244 24.1015 7.11728C23.9936 7.44978 23.7048 7.73853 23.1273 8.31603L18.9434 12.5014L13.11 6.66812M1.44336 24.1667L7.27669 24.1667L18.9434 12.5" stroke="#026F2E" stroke-width="2" stroke-linecap="round" stroke-linejoin="round"/>
</svg>
