<svg width="23" height="23" viewBox="0 0 23 23" fill="none" xmlns="http://www.w3.org/2000/svg">
<path d="M1.48006 5.10061L1.06631 9.65561C1.00381 10.3306 0.973806 10.6694 1.02881 10.9931C1.07929 11.2813 1.17999 11.5585 1.32631 11.8119C1.49006 12.0969 1.73256 12.3394 2.21506 12.8219L8.68506 19.2919C9.66881 20.2756 10.1601 20.7669 10.7301 20.9519C11.2326 21.1156 11.7738 21.1156 12.2763 20.9519C12.8463 20.7669 13.3426 20.2719 14.3326 19.2819L19.2826 14.3319C20.2726 13.3419 20.7663 12.8469 20.9526 12.2769C21.1153 11.7746 21.1148 11.2338 20.9513 10.7319C20.7663 10.1606 20.2726 9.66561 19.2826 8.67561L12.8288 2.22186C12.3413 1.73436 12.0988 1.49186 11.8126 1.32686C11.5588 1.1804 11.2812 1.0797 10.9926 1.02936C10.6676 0.973108 10.3238 1.00436 9.63756 1.06686L5.10006 1.47936C3.92006 1.58686 3.32881 1.64061 2.86631 1.89811C2.45948 2.12452 2.12397 2.46003 1.89756 2.86686C1.64131 3.32686 1.58756 3.91436 1.48131 5.08311L1.48006 5.10061Z" stroke="#026F2E" stroke-width="2" stroke-linecap="round" stroke-linejoin="round"/>
<path d="M7.68639 7.68564C7.80244 7.5695 7.89449 7.43164 7.95726 7.27993C8.02004 7.12822 8.05232 6.96563 8.05226 6.80145C8.05221 6.63726 8.01981 6.4747 7.95692 6.32303C7.89404 6.17136 7.8019 6.03357 7.68576 5.91751C7.56962 5.80146 7.43176 5.70941 7.28005 5.64664C7.12834 5.58386 6.96575 5.55158 6.80157 5.55164C6.63738 5.55169 6.47482 5.58409 6.32315 5.64697C6.17149 5.70986 6.03369 5.802 5.91764 5.91814C5.68325 6.15269 5.55164 6.47074 5.55176 6.80233C5.55182 6.96652 5.58421 7.12908 5.6471 7.28075C5.70998 7.43241 5.80212 7.57021 5.91826 7.68626C6.0344 7.80232 6.17226 7.89436 6.32397 7.95714C6.47568 8.01992 6.63827 8.0522 6.80245 8.05214C7.13404 8.05203 7.452 7.92019 7.68639 7.68564Z" stroke="#026F2E" stroke-width="2" stroke-linecap="round" stroke-linejoin="round"/>
</svg>
