<svg width="22" height="24" viewBox="0 0 22 24" fill="none" xmlns="http://www.w3.org/2000/svg">
<path d="M14.5003 8.5L9.83366 13.1667L7.50033 10.8333M20.3337 9.85917C20.3337 17.5218 14.5377 20.9577 12.0807 22.0695L12.0772 22.0718C11.8193 22.1885 11.6898 22.2468 11.3958 22.297C11.2092 22.3297 10.7915 22.3297 10.606 22.297C10.3669 22.2571 10.1355 22.1803 9.91999 22.0695C7.46299 20.9577 1.66699 17.5218 1.66699 9.85917V5.23333C1.66699 3.92667 1.66699 3.27333 1.92133 2.774C2.14533 2.33417 2.50116 1.97833 2.94099 1.75433C3.44033 1.5 4.09366 1.5 5.40033 1.5H16.6003C17.907 1.5 18.5603 1.5 19.0585 1.75433C19.4983 1.97833 19.8553 2.33417 20.0793 2.774C20.3337 3.27217 20.3337 3.9255 20.3337 5.22983V9.85917Z" stroke="white" stroke-width="2" stroke-linecap="round" stroke-linejoin="round"/>
</svg>
