<svg width="25" height="25" viewBox="0 0 25 25" fill="none" xmlns="http://www.w3.org/2000/svg">
<path d="M8.5 14.125L16 17.875M16 6.625L8.5 10.375M19.75 23.5C18.7554 23.5 17.8016 23.1049 17.0983 22.4017C16.3951 21.6984 16 20.7446 16 19.75C16 18.7554 16.3951 17.8016 17.0983 17.0983C17.8016 16.3951 18.7554 16 19.75 16C20.7446 16 21.6984 16.3951 22.4017 17.0983C23.1049 17.8016 23.5 18.7554 23.5 19.75C23.5 20.7446 23.1049 21.6984 22.4017 22.4017C21.6984 23.1049 20.7446 23.5 19.75 23.5ZM4.75 16C3.75544 16 2.80161 15.6049 2.09835 14.9017C1.39509 14.1984 1 13.2446 1 12.25C1 11.2554 1.39509 10.3016 2.09835 9.59835C2.80161 8.89509 3.75544 8.5 4.75 8.5C5.74456 8.5 6.69839 8.89509 7.40165 9.59835C8.10491 10.3016 8.5 11.2554 8.5 12.25C8.5 13.2446 8.10491 14.1984 7.40165 14.9017C6.69839 15.6049 5.74456 16 4.75 16ZM19.75 8.5C18.7554 8.5 17.8016 8.10491 17.0983 7.40165C16.3951 6.69839 16 5.74456 16 4.75C16 3.75544 16.3951 2.80161 17.0983 2.09835C17.8016 1.39509 18.7554 1 19.75 1C20.7446 1 21.6984 1.39509 22.4017 2.09835C23.1049 2.80161 23.5 3.75544 23.5 4.75C23.5 5.74456 23.1049 6.69839 22.4017 7.40165C21.6984 8.10491 20.7446 8.5 19.75 8.5Z" stroke="#026F2E" stroke-width="2" stroke-linecap="round" stroke-linejoin="round"/>
</svg>
