<svg width="144" height="144" viewBox="0 0 144 144" fill="none" xmlns="http://www.w3.org/2000/svg">
<path d="M29.7933 26.1818C29.7933 22.5671 32.7578 19.6364 36.414 19.6364C40.0703 19.6364 43.0347 22.5671 43.0347 26.1818C43.0347 29.7966 40.0703 32.7273 36.414 32.7273C32.7578 32.7273 29.7933 29.7966 29.7933 26.1818ZM32.2761 124.364C35.4755 124.364 38.0692 121.799 38.0692 118.636C38.0692 115.473 35.4755 112.909 32.2761 112.909C29.0766 112.909 26.483 115.473 26.483 118.636C26.483 121.799 29.0766 124.364 32.2761 124.364ZM115.035 60.5455H98.483C95.2835 60.5455 92.6899 63.1096 92.6899 66.2727C92.6899 69.4358 95.2835 72 98.483 72H100.966C104.622 72 107.586 74.9307 107.586 78.5455C107.586 82.1602 104.622 85.0909 100.966 85.0909H100.138C97.8524 85.0909 96.0002 86.922 96.0002 89.1818C96.0002 91.4416 97.8524 93.2727 100.138 93.2727H109.242C112.898 93.2727 115.862 96.2035 115.862 99.8182C115.862 103.433 112.898 106.364 109.242 106.364H96.0002C94.1713 106.364 92.6899 107.828 92.6899 109.636C92.6899 111.445 94.1713 112.909 96.0002 112.909H96.8278C100.027 112.909 102.621 115.473 102.621 118.636C102.621 121.799 100.027 124.364 96.8278 124.364H48.8278C45.6284 124.364 43.0347 121.799 43.0347 118.636C43.0347 115.473 45.6284 112.909 48.8278 112.909C51.1136 112.909 52.9658 111.078 52.9658 108.818C52.9658 106.558 51.1136 104.727 48.8278 104.727H34.7589C31.1026 104.727 28.1382 101.797 28.1382 98.1818C28.1382 94.5671 31.1026 91.6364 34.7589 91.6364H42.2071C45.4066 91.6364 48.0002 89.0722 48.0002 85.9091C48.0002 82.746 45.4066 80.1818 42.2071 80.1818H28.1382C23.5682 80.1818 19.8623 76.518 19.8623 72C19.8623 67.482 23.5682 63.8182 28.1382 63.8182H33.1037C35.8463 63.8182 38.0692 61.6206 38.0692 58.9091C38.0692 56.1976 35.8463 54 33.1037 54H28.9658C25.7663 54 23.1726 51.4358 23.1726 48.2727C23.1726 45.1096 25.7663 42.5455 28.9658 42.5455H59.5864C62.3291 42.5455 64.552 40.3478 64.552 37.6364C64.552 34.9249 62.3291 32.7273 59.5864 32.7273H56.2761C52.6198 32.7273 49.6554 29.7966 49.6554 26.1818C49.6554 22.5671 52.6198 19.6364 56.2761 19.6364H96.0002C99.6565 19.6364 102.621 22.5671 102.621 26.1818C102.621 29.7966 99.6565 32.7273 96.0002 32.7273H92.6899C89.0336 32.7273 86.0692 35.658 86.0692 39.2727C86.0692 42.8875 89.0336 45.8182 92.6899 45.8182H115.035C119.148 45.8182 122.483 49.1155 122.483 53.1818C122.483 57.2482 119.148 60.5455 115.035 60.5455ZM124.138 78.5455C124.138 74.9307 121.174 72 117.517 72C113.861 72 110.897 74.9307 110.897 78.5455C110.897 82.1602 113.861 85.0909 117.517 85.0909C121.174 85.0909 124.138 82.1602 124.138 78.5455Z" fill="#026F2E" fill-opacity="0.1"/>
<path d="M117.517 72C117.517 96.849 97.1343 117 71.9997 117C46.865 117 26.4824 96.849 26.4824 72C26.4824 47.151 46.865 27 71.9997 27C97.1343 27 117.517 47.151 117.517 72Z" fill="#026F2E"/>
<path d="M91.5051 55.3093L63.7177 82.4887L54.1444 73.1627C52.3578 71.4226 49.4666 71.4243 47.6836 73.1681C45.8969 74.9135 45.8987 77.7453 47.6872 79.489L60.4919 91.9683C62.2785 93.7102 65.1716 93.7066 66.9546 91.9629L97.9732 61.6231C99.7562 59.8776 99.7562 57.0513 97.9714 55.3076C96.1847 53.5639 93.2899 53.5638 91.5051 55.3093Z" fill="white"/>
</svg>
