<svg width="60" height="30" viewBox="0 0 60 30" fill="none" xmlns="http://www.w3.org/2000/svg">
<path d="M15.417 29.5834L44.5837 29.5834C48.4514 29.5834 52.1607 28.0469 54.8956 25.312C57.6305 22.5771 59.167 18.8678 59.167 15C59.167 11.1323 57.6305 7.42297 54.8956 4.68807C52.1607 1.95316 48.4514 0.416707 44.5837 0.416707L15.417 0.41671C11.5492 0.41671 7.83992 1.95317 5.10502 4.68807C2.37011 7.42298 0.833655 11.1323 0.833655 15C0.833655 18.8678 2.37011 22.5771 5.10502 25.312C7.83992 28.0469 11.5493 29.5834 15.417 29.5834ZM44.5837 6.25004C46.9043 6.25004 49.1299 7.17191 50.7708 8.81286C52.4118 10.4538 53.3337 12.6794 53.3337 15C53.3337 17.3207 52.4118 19.5463 50.7708 21.1872C49.1299 22.8282 46.9043 23.75 44.5837 23.75C42.263 23.75 40.0374 22.8282 38.3965 21.1872C36.7555 19.5463 35.8337 17.3207 35.8337 15C35.8337 12.6794 36.7555 10.4538 38.3965 8.81286C40.0374 7.17191 42.263 6.25004 44.5837 6.25004Z" fill="#009933"/>
</svg>
