<svg width="60" height="30" viewBox="0 0 60 30" fill="none" xmlns="http://www.w3.org/2000/svg">
<path d="M44.583 0.416626H15.4163C11.5486 0.416626 7.83927 1.95308 5.10437 4.68799C2.36946 7.42289 0.833008 11.1322 0.833008 15C0.833008 18.8677 2.36946 22.577 5.10437 25.3119C7.83927 28.0468 11.5486 29.5833 15.4163 29.5833H44.583C48.4507 29.5833 52.1601 28.0468 54.895 25.3119C57.6299 22.577 59.1663 18.8677 59.1663 15C59.1663 11.1322 57.6299 7.42289 54.895 4.68799C52.1601 1.95308 48.4507 0.416626 44.583 0.416626ZM15.4163 23.75C13.0957 23.75 10.8701 22.8281 9.22916 21.1871C7.58821 19.5462 6.66634 17.3206 6.66634 15C6.66634 12.6793 7.58821 10.4537 9.22916 8.81277C10.8701 7.17183 13.0957 6.24996 15.4163 6.24996C17.737 6.24996 19.9626 7.17183 21.6035 8.81277C23.2445 10.4537 24.1663 12.6793 24.1663 15C24.1663 17.3206 23.2445 19.5462 21.6035 21.1871C19.9626 22.8281 17.737 23.75 15.4163 23.75Z" fill="#003333"/>
</svg>
