<svg width="27" height="27" viewBox="0 0 27 27" fill="none" xmlns="http://www.w3.org/2000/svg">
<path d="M25.1668 4.16659C25.1668 3.34992 25.1668 2.94159 25.0064 2.6295C24.8671 2.35521 24.6445 2.13211 24.3706 1.99221C24.0585 1.83325 23.6502 1.83325 22.8335 1.83325H4.16683C3.35016 1.83325 2.94183 1.83325 2.62975 1.99221C2.35536 2.13202 2.13227 2.35511 1.99245 2.6295C1.8335 2.94159 1.8335 3.34992 1.8335 4.16659V5.24138C1.8335 5.59867 1.8335 5.77658 1.87433 5.94429C1.91004 6.0936 1.9691 6.23633 2.04933 6.36721C2.13829 6.51304 2.26516 6.63992 2.516 6.89221L9.89954 14.2743C10.1518 14.5266 10.2787 14.6535 10.3677 14.7993C10.4479 14.9305 10.5077 15.0735 10.5427 15.2222C10.5835 15.3885 10.5835 15.5649 10.5835 15.9135V22.8493C10.5835 24.0991 10.5835 24.7247 10.846 25.101C10.9599 25.2637 11.1058 25.4014 11.2748 25.5058C11.4439 25.6101 11.6324 25.6788 11.8289 25.7076C12.2825 25.7747 12.8425 25.4962 13.9595 24.9362L15.1262 24.3528C15.5958 24.1195 15.8291 24.0028 15.9997 23.8278C16.1511 23.6733 16.2662 23.487 16.3366 23.2824C16.4168 23.052 16.4168 22.7895 16.4168 22.266V15.9251C16.4168 15.5678 16.4168 15.3899 16.4577 15.2222C16.4933 15.0729 16.5524 14.9302 16.6327 14.7993C16.7202 14.6535 16.847 14.528 17.095 14.2801L17.1008 14.2743L24.4843 6.89221C24.7352 6.63992 24.8606 6.51304 24.951 6.36721C25.0314 6.23639 25.0904 6.09364 25.126 5.94429C25.1668 5.7795 25.1668 5.60158 25.1668 5.25304V4.16659Z" stroke="#009933" stroke-width="2" stroke-linecap="round" stroke-linejoin="round"/>
</svg>
