<svg width="28" height="28" viewBox="0 0 28 28" fill="none" xmlns="http://www.w3.org/2000/svg">
<path d="M25.4128 9.72025C25.9484 9.72669 26.3791 10.1617 26.3791 10.6961V19.3263C26.3791 24.2646 23.2918 27.3334 18.3426 27.3334H14.4068C13.8647 27.3334 13.4234 26.8983 13.417 26.3575C13.4234 25.8146 13.8628 25.3762 14.4068 25.3698H18.3426C22.243 25.3698 24.3994 23.2299 24.4348 19.3263V10.6961C24.4348 10.1572 24.8727 9.72025 25.4128 9.72025ZM17.3645 1.70147C17.9066 1.70791 18.3426 2.14821 18.3426 2.68912C18.3426 2.94999 18.2379 3.20001 18.052 3.38337C17.866 3.56673 17.6142 3.66815 17.3528 3.66501H8.69171C4.7913 3.66501 2.63488 5.81668 2.63488 9.72025V19.3263C2.63488 23.2299 4.7913 25.3698 8.69171 25.3698C9.23573 25.3762 9.67518 25.8146 9.68155 26.3575C9.67509 26.8983 9.23381 27.3334 8.69171 27.3334C3.74255 27.3334 0.666992 24.2646 0.666992 19.3263V9.72025C0.666992 4.77024 3.74255 1.70147 8.69171 1.70147H17.3645ZM18.8544 10.6322C19.1985 10.3978 19.6622 10.4045 20.0017 10.6651C20.3837 10.9583 20.4947 11.4854 20.2633 11.9072L16.4925 16.7631C16.3275 16.9665 16.092 17.1007 15.8327 17.1394C15.5745 17.1656 15.3164 17.0896 15.1138 16.9277L11.4962 14.0941L8.24393 18.3152C8.08885 18.5257 7.85563 18.6654 7.5965 18.7029C7.33736 18.7405 7.07395 18.6728 6.86523 18.515C6.43928 18.1818 6.36054 17.569 6.68848 17.1394L10.5418 12.1306C10.7025 11.9229 10.9395 11.7876 11.2003 11.7545C11.4612 11.7214 11.7245 11.7933 11.9322 11.9542L15.5498 14.7878L18.7315 10.7314L18.8544 10.6322ZM22.5352 0.933305C23.8294 0.394555 25.3214 0.687393 26.3147 1.67509C27.3079 2.66279 27.6065 4.15053 27.071 5.44369C26.5354 6.73684 25.2715 7.58034 23.8692 7.58034C21.9604 7.58034 20.4112 6.03985 20.4047 4.13532L20.4126 3.88993C20.5005 2.58992 21.3171 1.44036 22.5352 0.933305ZM23.8692 2.64209C23.0426 2.64209 22.3726 3.31063 22.3726 4.13532C22.3726 4.96001 23.0426 5.62855 23.8692 5.62855C24.6957 5.62855 25.3657 4.96001 25.3657 4.13532C25.3657 3.31063 24.6957 2.64209 23.8692 2.64209Z" fill="white"/>
</svg>
