<svg width="229" height="142" viewBox="0 0 229 142" fill="none" xmlns="http://www.w3.org/2000/svg">
<g clip-path="url(#clip0_717_659)">
<path d="M198.999 111.347C198.948 111.282 198.897 111.217 198.847 111.153C198.797 111.088 198.747 111.023 198.697 110.957C198.647 110.892 198.598 110.826 198.548 110.761C198.499 110.695 198.45 110.629 198.401 110.563C198.319 108.66 198.318 106.774 198.398 104.905C198.475 103.049 198.632 101.215 198.869 99.4036C199.102 97.6058 199.411 95.8357 199.796 94.0934C200.178 92.3644 200.633 90.6681 201.162 89.0044C201.222 88.8126 201.284 88.6216 201.346 88.4313C201.408 88.241 201.472 88.0519 201.537 87.8641C201.601 87.6754 201.667 87.4876 201.733 87.3006C201.8 87.1136 201.868 86.9273 201.936 86.7416C202.445 85.3524 203.006 83.9972 203.617 82.6761C204.225 81.3641 204.881 80.0884 205.585 78.849C206.285 77.6182 207.03 76.4254 207.822 75.2706C208.608 74.1243 209.438 73.0181 210.311 71.952L210.449 71.7847L210.587 71.6184L210.726 71.4529L210.865 71.2884L210.965 71.1703L211.066 71.0525C211.1 71.0135 211.134 70.9746 211.168 70.9358C211.202 70.897 211.237 70.8587 211.272 70.8208L211.355 70.7753L211.437 70.7302L211.52 70.6853L211.601 70.6405L211.607 70.6388L211.612 70.6364L211.617 70.6339L211.622 70.632L211.655 70.6139L211.688 70.5957L211.72 70.5774L211.751 70.5591L211.894 70.4826L212.036 70.4072L212.178 70.332L212.319 70.2561L212.211 70.2021L211.941 70.0676L211.943 70.0665C211.966 70.0764 211.989 70.0869 212.012 70.0979C212.035 70.1089 212.058 70.1196 212.081 70.1298C212.104 70.1407 212.127 70.1515 212.149 70.1622C212.172 70.173 212.195 70.184 212.218 70.1953L212.244 70.2064L212.27 70.2178L212.297 70.2292C212.306 70.2327 212.315 70.237 212.323 70.2419C212.33 70.2459 212.338 70.2493 212.346 70.2519L212.369 70.2618L212.393 70.2717L212.416 70.2817C213.401 70.7332 214.388 71.1915 215.362 71.6722C216.336 72.1528 217.296 72.6537 218.229 73.1928C219.16 73.7278 220.062 74.3114 220.931 74.9411C221.799 75.5677 222.619 76.2562 223.387 77.0014C224.198 77.7935 224.922 78.6689 225.55 79.6128C226.17 80.5402 226.68 81.5369 227.07 82.5826C227.444 83.578 227.668 84.624 227.732 85.6858C227.794 86.707 227.651 87.7303 227.31 88.695C227.264 88.8208 227.214 88.9448 227.161 89.0671C227.108 89.1894 227.051 89.3098 226.991 89.4283C226.93 89.5469 226.866 89.6633 226.799 89.7777C226.731 89.8921 226.66 90.0044 226.586 90.1146C226.555 90.1606 226.523 90.2061 226.491 90.2512C226.459 90.2963 226.426 90.341 226.393 90.3854C226.36 90.4297 226.326 90.4738 226.292 90.5178C226.258 90.5618 226.224 90.6054 226.189 90.6487C225.545 91.4597 224.725 92.1146 223.792 92.5646C222.854 93.0131 221.835 93.2661 220.796 93.3081C219.704 93.3537 218.613 93.1953 217.58 92.841C216.471 92.4623 215.441 91.8841 214.54 91.1348C214.229 90.8772 213.933 90.6007 213.656 90.3066C213.382 90.0152 213.126 89.707 212.889 89.3838C212.655 89.0634 212.441 88.7285 212.249 88.3812C212.058 88.0364 211.89 87.6796 211.745 87.313C211.677 88.4517 211.854 89.5917 212.263 90.6563C212.695 91.7755 213.282 92.8283 214.007 93.7838C214.773 94.8012 215.622 95.7526 216.547 96.628C217.478 97.5211 218.467 98.3583 219.443 99.1293C220.42 99.9003 221.431 100.689 222.41 101.511C223.388 102.32 224.319 103.184 225.198 104.099C226.051 104.982 226.805 105.956 227.448 107.003C228.079 108.036 228.536 109.167 228.799 110.349C229.08 111.637 229.066 112.972 228.757 114.254C228.607 114.877 228.393 115.483 228.118 116.063C227.842 116.647 227.511 117.204 227.129 117.726L227.093 117.774L227.057 117.821L227.021 117.869L226.984 117.916C226.052 119.134 224.883 120.15 223.547 120.902C222.874 121.28 222.165 121.59 221.431 121.826C220.679 122.068 219.905 122.235 219.12 122.324C217.627 122.462 216.121 122.375 214.653 122.068C213.142 121.751 211.673 121.259 210.275 120.602C208.83 119.926 207.449 119.12 206.148 118.196C204.836 117.267 203.594 116.242 202.431 115.131C202.122 114.837 201.819 114.537 201.521 114.231C201.223 113.926 200.931 113.616 200.645 113.3C200.358 112.984 200.078 112.664 199.804 112.338C199.53 112.013 199.261 111.683 198.999 111.347Z" fill="#F2F2F2"/>
<path d="M223.006 89.2998C222.084 88.8205 221.196 88.2756 220.351 87.6694C218.663 86.4588 217.155 85.0149 215.872 83.3808C215.236 82.57 214.66 81.7138 214.148 80.8191C213.721 80.0632 213.342 79.2812 213.014 78.4777C212.693 77.6938 212.423 76.89 212.206 76.0711C211.994 75.2714 211.836 74.4582 211.733 73.6372C211.632 72.833 211.588 72.0227 211.6 71.2123C211.602 71.1666 211.603 71.1212 211.604 71.0761C211.604 71.031 211.606 70.9856 211.607 70.9399C211.608 70.8942 211.61 70.8491 211.612 70.8046L211.619 70.6699C211.58 70.7005 211.541 70.7313 211.503 70.7625L211.387 70.8565L211.272 70.9512L211.158 71.0462L211.084 71.1071L211.01 71.1686L210.937 71.2304L210.864 71.2924L210.964 71.1745L211.067 71.0528C211.101 71.0138 211.135 70.9749 211.169 70.9361C211.203 70.8973 211.238 70.859 211.273 70.821L211.356 70.7756L211.439 70.7305L211.519 70.6857L211.601 70.6409L211.606 70.6392L211.611 70.6368L211.617 70.6343L211.622 70.6324L211.655 70.6143L211.688 70.5962L211.72 70.5779L211.751 70.5596L211.893 70.4831L212.036 70.4077L212.178 70.3325L212.32 70.2571L212.209 70.2019L211.938 70.0671L211.94 70.066C211.964 70.0759 211.987 70.0864 212.009 70.0974C212.032 70.1085 212.055 70.1191 212.078 70.1293C212.101 70.1402 212.124 70.151 212.147 70.1617C212.169 70.1725 212.192 70.1835 212.215 70.1948L212.241 70.2059L212.268 70.2173L212.295 70.2287C212.303 70.2322 212.312 70.2364 212.32 70.2413L212.318 70.2843L212.315 70.3245L212.312 70.3645L212.31 70.4051C212.211 71.7702 212.282 73.1423 212.522 74.4898C212.769 75.8767 213.174 77.2307 213.73 78.5251C214.304 79.8649 215.022 81.1384 215.872 82.3231C216.749 83.5486 217.754 84.6772 218.87 85.6899C219.993 86.695 221.219 87.5798 222.526 88.3298C223.172 88.7 223.837 89.0357 224.518 89.3354C225.193 89.6322 225.884 89.892 226.588 90.1138C226.557 90.1598 226.525 90.2053 226.493 90.2504C226.461 90.2954 226.428 90.3402 226.395 90.3846C226.362 90.4289 226.328 90.473 226.294 90.517C226.26 90.561 226.226 90.6046 226.191 90.6478C225.92 90.5579 225.65 90.4622 225.381 90.3608C225.113 90.2594 224.846 90.1524 224.58 90.0399C224.314 89.9274 224.05 89.8093 223.788 89.6857C223.526 89.5621 223.265 89.4334 223.006 89.2998Z" fill="white"/>
<path d="M204.738 99.5017C204.436 99.0503 204.151 98.5905 203.883 98.1224C203.615 97.6542 203.364 97.1795 203.131 96.6982C202.898 96.2168 202.682 95.7294 202.485 95.236C202.287 94.7425 202.109 94.2448 201.948 93.7427C201.866 93.4764 201.791 93.2092 201.722 92.941C201.653 92.6728 201.59 92.4042 201.534 92.1351C201.478 91.8661 201.428 91.5964 201.384 91.3262C201.341 91.0559 201.304 90.7859 201.274 90.5162C201.259 90.3904 201.245 90.2644 201.233 90.1382C201.221 90.012 201.21 89.8859 201.201 89.7599C201.191 89.6337 201.183 89.5077 201.177 89.3819C201.17 89.256 201.165 89.1303 201.161 89.0048C201.221 88.813 201.283 88.622 201.345 88.4317C201.407 88.2414 201.471 88.0519 201.535 87.8632C201.6 87.6745 201.665 87.4867 201.732 87.2996C201.799 87.1126 201.866 86.9263 201.935 86.7407C201.92 86.8962 201.908 87.0521 201.897 87.2084C201.886 87.3647 201.878 87.5214 201.871 87.6787C201.865 87.8359 201.861 87.9936 201.859 88.1516C201.857 88.3096 201.858 88.468 201.86 88.6266C201.86 88.713 201.861 88.7995 201.862 88.8859C201.864 88.9723 201.867 89.0588 201.869 89.1453C201.872 89.2317 201.876 89.3181 201.881 89.4046C201.885 89.4911 201.89 89.5775 201.896 89.664C201.963 90.6341 202.115 91.5964 202.351 92.5396C202.59 93.4943 202.901 94.4293 203.283 95.3363C203.672 96.2607 204.121 97.1589 204.626 98.0251C205.14 98.9065 205.702 99.7589 206.31 100.579C206.964 101.463 207.655 102.325 208.384 103.163C209.112 104.001 209.868 104.817 210.652 105.609C211.437 106.401 212.244 107.168 213.075 107.91C213.905 108.653 214.75 109.37 215.608 110.061C216.487 110.771 217.383 111.454 218.298 112.109C219.212 112.765 220.142 113.392 221.086 113.991C222.03 114.589 222.988 115.158 223.96 115.698C224.933 116.238 225.916 116.747 226.91 117.225C226.956 117.247 226.997 117.277 227.032 117.315C227.066 117.351 227.093 117.393 227.113 117.439C227.133 117.484 227.144 117.532 227.147 117.581C227.15 117.63 227.144 117.68 227.128 117.727C227.123 117.747 227.116 117.767 227.107 117.786C227.098 117.804 227.088 117.821 227.075 117.837C227.063 117.854 227.049 117.868 227.034 117.881C227.019 117.894 227.002 117.906 226.984 117.915C226.966 117.924 226.946 117.93 226.926 117.933C226.906 117.937 226.885 117.938 226.865 117.937C226.844 117.935 226.823 117.931 226.803 117.925C226.782 117.919 226.762 117.91 226.743 117.9C226.62 117.841 226.498 117.782 226.375 117.722C226.252 117.663 226.13 117.603 226.007 117.543C225.885 117.483 225.763 117.422 225.641 117.36C225.519 117.299 225.397 117.237 225.276 117.174C224.262 116.653 223.262 116.101 222.276 115.518C221.29 114.934 220.318 114.321 219.361 113.676C218.405 113.032 217.466 112.359 216.544 111.658C215.622 110.956 214.72 110.226 213.837 109.468C212.984 108.739 212.142 107.985 211.32 107.205C210.498 106.425 209.697 105.62 208.926 104.79C208.155 103.959 207.414 103.104 206.712 102.222C206.011 101.341 205.35 100.434 204.738 99.5017Z" fill="white"/>
<path d="M223.829 27.0408L223.103 27.1352L227.97 8.85674C228.329 7.63622 228.387 6.34702 228.141 5.09905C227.926 4.07934 227.397 3.153 226.627 2.45148C225.82 1.75005 224.832 1.2911 223.776 1.12757C222.49 0.928272 221.177 0.987095 219.914 1.30062L186.836 8.83827C185.681 9.11856 184.576 9.57345 183.558 10.1872C182.452 10.8456 181.423 11.6264 180.491 12.5148C179.531 13.4207 178.67 14.4253 177.922 15.512C177.191 16.5638 176.595 17.7034 176.148 18.9041L141.538 114.155C140.963 115.722 140.589 117.355 140.426 119.015C140.274 120.49 140.346 121.978 140.638 123.431C140.882 124.694 141.391 125.89 142.132 126.941C142.811 127.896 143.768 128.618 144.873 129.01L179.822 141.049C181.375 141.578 183.041 141.677 184.646 141.336C186.361 140.962 187.974 140.219 189.372 139.158C190.943 137.977 192.294 136.529 193.363 134.879C194.547 133.067 195.431 131.076 195.982 128.982L219.413 40.9891L220.149 40.9301L223.829 27.0408Z" fill="#2F2E41"/>
<path d="M221.301 26.0289L220.575 26.1232L225.442 7.84478C225.801 6.62426 225.859 5.33506 225.612 4.08708C225.398 3.06738 224.868 2.14104 224.099 1.43952C223.292 0.73809 222.304 0.279136 221.248 0.11561C219.962 -0.0836907 218.649 -0.0248682 217.385 0.288654L184.307 7.82631C183.153 8.1066 182.048 8.56148 181.03 9.17527C179.924 9.83367 178.895 10.6144 177.962 11.5028C177.003 12.4087 176.142 13.4133 175.394 14.5C174.663 15.5518 174.067 16.6915 173.62 17.8921L139.01 113.144C138.435 114.71 138.061 116.343 137.898 118.004C137.746 119.478 137.818 120.967 138.11 122.419C138.353 123.682 138.863 124.878 139.603 125.929C140.283 126.884 141.24 127.606 142.345 127.998L177.294 140.037C178.847 140.566 180.513 140.665 182.117 140.324C183.832 139.95 185.445 139.207 186.844 138.146C188.415 136.965 189.766 135.517 190.834 133.867C192.018 132.055 192.903 130.064 193.454 127.97L216.885 39.9771L217.62 39.9181L221.301 26.0289Z" fill="#3F3D56"/>
<path d="M217.093 2.67362L212.231 3.73947C212.284 4.16042 212.242 4.58792 212.108 4.99052C211.957 5.46143 211.737 5.90756 211.456 6.31468C210.824 7.23893 209.98 7.99867 208.995 8.53064C208.877 8.59338 208.76 8.65132 208.642 8.70445C208.525 8.75758 208.408 8.80581 208.291 8.84916C208.174 8.89251 208.058 8.93079 207.943 8.96402C207.828 8.99724 207.714 9.02524 207.602 9.04801L188.591 12.8998C188.238 12.9818 187.871 12.9777 187.52 12.8877C187.238 12.8118 186.989 12.6439 186.812 12.4105C186.635 12.1599 186.534 11.8626 186.524 11.5554C186.509 11.1636 186.571 10.7727 186.706 10.4046C186.74 10.3052 186.778 10.2052 186.821 10.1045C186.864 10.0038 186.911 9.90312 186.962 9.80243C187.013 9.70124 187.068 9.60055 187.128 9.50036C187.188 9.40018 187.251 9.30008 187.317 9.20006L183.718 9.98914C182.851 10.1926 182.02 10.5288 181.256 10.9859C180.421 11.4782 179.644 12.0639 178.941 12.7316C178.216 13.4138 177.566 14.1713 177.002 14.9913C176.452 15.7837 176.004 16.6429 175.671 17.5483L141.126 113.627C140.696 114.808 140.42 116.039 140.305 117.29C140.199 118.395 140.262 119.509 140.492 120.594C140.683 121.533 141.074 122.418 141.639 123.192C142.156 123.893 142.877 124.417 143.704 124.693L178.91 136.138C180.072 136.511 181.312 136.566 182.502 136.299C183.769 136.009 184.96 135.45 185.993 134.66C187.149 133.784 188.145 132.714 188.935 131.498C189.809 130.161 190.465 128.694 190.878 127.152L223.046 8.37632C223.316 7.46964 223.366 6.51164 223.191 5.58176C223.04 4.81974 222.655 4.12394 222.09 3.59147C221.497 3.05912 220.766 2.70631 219.98 2.57419C219.021 2.413 218.039 2.44682 217.093 2.67362Z" fill="white"/>
<path d="M198.213 48.1779H128.178V24.4306H198.213V48.1779Z" fill="white"/>
<path d="M177.738 56.5593H109.099V89.8521H177.738V56.5593Z" fill="white"/>
<path d="M120.249 72.5465C122.991 72.5465 125.214 70.3223 125.214 67.5785C125.214 64.8348 122.991 62.6106 120.249 62.6106C117.507 62.6106 115.284 64.8348 115.284 67.5785C115.284 70.3223 117.507 72.5465 120.249 72.5465Z" fill="#2FB73B"/>
<path d="M131.715 64.2666C131.496 64.2666 131.285 64.3538 131.13 64.5091C130.975 64.6644 130.888 64.875 130.888 65.0946C130.888 65.3142 130.975 65.5248 131.13 65.68C131.285 65.8353 131.496 65.9226 131.715 65.9226H170.725C170.944 65.922 171.154 65.8345 171.309 65.6793C171.464 65.5241 171.551 65.3138 171.551 65.0946C171.551 64.8753 171.464 64.665 171.309 64.5098C171.154 64.3546 170.944 64.2671 170.725 64.2666H131.715Z" fill="#E6E6E6"/>
<path d="M131.715 69.2345C131.606 69.2341 131.499 69.2552 131.398 69.2966C131.297 69.3379 131.206 69.3987 131.129 69.4754C131.052 69.5521 130.99 69.6433 130.949 69.7438C130.907 69.8442 130.885 69.9519 130.885 70.0607C130.885 70.1696 130.906 70.2774 130.947 70.378C130.989 70.4786 131.049 70.57 131.126 70.6471C131.203 70.7242 131.294 70.7853 131.395 70.8271C131.495 70.8689 131.603 70.8904 131.712 70.8905H148.501C148.61 70.8905 148.717 70.8691 148.818 70.8275C148.918 70.7858 149.009 70.7249 149.086 70.648C149.163 70.5711 149.224 70.4798 149.266 70.3794C149.307 70.2789 149.329 70.1712 149.329 70.0625C149.329 69.9538 149.307 69.8461 149.266 69.7456C149.224 69.6452 149.163 69.5539 149.086 69.477C149.009 69.4001 148.918 69.3391 148.818 69.2975C148.717 69.2559 148.61 69.2345 148.501 69.2345H131.715Z" fill="#E6E6E6"/>
<path d="M116.441 77.1768C115.811 77.1768 115.299 77.5483 115.299 78.0048C115.299 78.4614 115.811 78.8328 116.441 78.8328H170.262C170.892 78.8328 171.404 78.4613 171.404 78.0048C171.404 77.5483 170.892 77.1768 170.262 77.1768H116.441Z" fill="#E6E6E6"/>
<path d="M116.441 82.1448C115.811 82.1448 115.299 82.5162 115.299 82.9728C115.299 83.4293 115.811 83.8007 116.441 83.8007H157.873C158.503 83.8007 159.015 83.4293 159.015 82.9728C159.015 82.5163 158.503 82.1448 157.873 82.1448H116.441Z" fill="#E6E6E6"/>
<path d="M178.435 90.5505H108.4V55.8608H178.435V90.5505ZM109.796 89.1536H177.039V57.2577H109.796V89.1536Z" fill="#E6E6E6"/>
<path d="M140.026 41.1163C142.768 41.1163 144.991 38.892 144.991 36.1483C144.991 33.4046 142.768 31.1804 140.026 31.1804C137.284 31.1804 135.062 33.4046 135.062 36.1483C135.062 38.892 137.284 41.1163 140.026 41.1163Z" fill="#2FB73B"/>
<path d="M151.493 32.8363C151.273 32.8363 151.063 32.9236 150.907 33.0788C150.752 33.2341 150.665 33.4447 150.665 33.6643C150.665 33.8839 150.752 34.0945 150.907 34.2498C151.063 34.4051 151.273 34.4923 151.493 34.4923H190.503C190.722 34.4918 190.932 34.4043 191.086 34.2491C191.241 34.0939 191.328 33.8836 191.328 33.6643C191.328 33.4451 191.241 33.2348 191.086 33.0796C190.932 32.9244 190.722 32.8369 190.503 32.8363H151.493Z" fill="#E6E6E6"/>
<path d="M151.492 37.8043C151.384 37.8039 151.276 37.825 151.175 37.8663C151.075 37.9077 150.983 37.9684 150.906 38.0452C150.829 38.1219 150.768 38.2131 150.726 38.3135C150.684 38.414 150.662 38.5217 150.662 38.6305C150.662 38.7393 150.683 38.8471 150.725 38.9477C150.766 39.0484 150.827 39.1398 150.904 39.2169C150.98 39.2939 151.072 39.3551 151.172 39.3969C151.272 39.4386 151.38 39.4602 151.489 39.4603H182.185C182.404 39.4603 182.615 39.373 182.77 39.2177C182.925 39.0625 183.012 38.8519 183.012 38.6323C183.012 38.4127 182.925 38.2021 182.77 38.0468C182.615 37.8915 182.404 37.8043 182.185 37.8043H151.492Z" fill="#E6E6E6"/>
<path d="M198.213 48.1779H128.178V24.4306H198.213V48.1779ZM129.574 46.781H196.817V25.8275H129.574V46.781Z" fill="#E6E6E6"/>
<path d="M60.6013 138.637H64.1317L65.8113 125.011L60.6006 125.011L60.6013 138.637Z" fill="#FFB6B6"/>
<path d="M70.9404 141.917L59.8448 141.917L59.8446 137.628L67.1763 137.627C68.1745 137.627 69.1319 138.024 69.8378 138.73C70.5438 139.437 70.9404 140.394 70.9404 141.393L70.9404 141.917Z" fill="#2F2E41"/>
<path d="M25.2988 134.059L28.3926 135.761L36.4252 124.63L31.8592 122.118L25.2988 134.059Z" fill="#FFB6B6"/>
<path d="M32.7793 141.917L23.0562 136.568L25.1215 132.809L31.5463 136.344C32.421 136.825 33.0689 137.634 33.3474 138.593C33.6259 139.553 33.5122 140.583 33.0313 141.459L32.7793 141.917Z" fill="#2F2E41"/>
<path d="M60.4365 131.074C60.1219 131.074 59.8181 130.959 59.5819 130.751C59.3457 130.543 59.1931 130.256 59.1527 129.944L54.7374 95.9002C54.7179 95.7496 54.6513 95.6091 54.5472 95.4986C54.4431 95.3882 54.3068 95.3134 54.1577 95.2851C54.0086 95.2568 53.8544 95.2764 53.7171 95.341C53.5797 95.4057 53.4664 95.512 53.3931 95.645L34.9923 129.05C34.8404 129.323 34.5958 129.532 34.3029 129.639C34.01 129.747 33.6882 129.746 33.3961 129.636L29.3853 128.107C29.224 128.045 29.0766 127.952 28.9517 127.833C28.8269 127.714 28.7271 127.571 28.6582 127.412C28.5894 127.254 28.5529 127.083 28.5509 126.911C28.5488 126.738 28.5813 126.566 28.6464 126.406L41.3931 95.0743C41.4254 94.9948 41.4472 94.9113 41.4582 94.8261C43.1847 81.4553 47.5774 74.6557 48.8825 72.8903C48.9778 72.7605 49.0406 72.6097 49.0654 72.4506C49.0903 72.2915 49.0765 72.1287 49.0253 71.976L48.8459 71.4375C48.7742 71.2237 48.7595 70.9949 48.8033 70.7737C48.847 70.5525 48.9476 70.3466 49.0953 70.1763C53.7982 64.8163 61.9951 67.7411 62.0774 67.7712L62.1185 67.7864L62.1442 67.8216C71.3354 80.4344 67.9371 121.4 67.1625 129.485C67.1336 129.788 66.9983 130.072 66.7804 130.286C66.5625 130.499 66.2762 130.629 65.9721 130.651L60.5371 131.07C60.5034 131.073 60.4698 131.074 60.4365 131.074Z" fill="#2F2E41"/>
<path d="M57.9448 36.4785C62.284 36.4785 65.8017 32.9587 65.8017 28.6167C65.8017 24.2748 62.284 20.755 57.9448 20.755C53.6055 20.755 50.0879 24.2748 50.0879 28.6167C50.0879 32.9587 53.6055 36.4785 57.9448 36.4785Z" fill="#FFB8B8"/>
<path d="M45.7979 78.6425L68.9173 80.748C66.9016 73.735 65.0549 66.7466 66.5602 59.7834C68.4717 53.567 68.6494 50.1233 63.6068 47.1956L60.2022 39.596L54.0404 39.3718L51.0358 38.5477C48.6084 42.453 47.6154 47.0821 48.2274 51.6401C49.5335 61.5519 49.1808 70.7495 45.7979 78.6425Z" fill="#2FB73B"/>
<path d="M49.3065 43.5606L46.981 32.8805C46.4958 30.3524 46.6175 27.7452 47.3362 25.2733C47.4145 25.02 47.5088 24.772 47.6186 24.5307C48.2624 23.1269 49.2745 21.9241 50.5472 21.0503C51.8199 20.1765 53.3056 19.6643 54.8461 19.5684C60.1312 19.2031 60.9071 19.7606 61.0982 20.0356C64.0847 19.9149 66.4004 21.0694 67.457 23.2059C67.5605 23.418 67.6163 23.6502 67.6204 23.8861C67.6245 24.1221 67.5768 24.3561 67.4808 24.5716C67.3847 24.7871 67.2426 24.979 67.0645 25.1336C66.8863 25.2883 66.6764 25.402 66.4496 25.4667C64.9737 25.8925 62.8991 26.3655 61.3433 26.2264C58.2246 29.9694 59.4995 36.8272 62.6635 40.9133L62.7879 41.0739L59.653 41.7167L56.0101 36.6404C55.938 36.54 55.8336 36.4674 55.7144 36.4347C55.5952 36.402 55.4684 36.4112 55.3552 36.4608C55.242 36.5105 55.1493 36.5975 55.0925 36.7073C55.0357 36.8171 55.0183 36.9432 55.0432 37.0643L56.1493 42.4406L49.3065 43.5606Z" fill="#2F2E41"/>
<path d="M219.231 142H0V141.448H219.331L219.231 142Z" fill="#CACACA"/>
<path d="M94.2158 72.3187L37.0338 112.78L23.3311 93.391L80.513 52.9296L94.2158 72.3187Z" fill="white"/>
<path d="M42.6327 100.169C44.8715 98.5848 45.403 95.4846 43.8198 93.2444C42.2366 91.0042 39.1383 90.4724 36.8994 92.0566C34.6606 93.6407 34.1291 96.741 35.7123 98.9812C37.2955 101.221 40.3939 101.753 42.6327 100.169Z" fill="#2FB73B"/>
<path d="M47.2169 86.7841C47.0377 86.9108 46.9162 87.1037 46.8791 87.3201C46.842 87.5365 46.8923 87.7589 47.0191 87.9382C47.1458 88.1174 47.3385 88.239 47.5548 88.2762C47.7711 88.3133 47.9933 88.2629 48.1725 88.1361L80.0232 65.5988C80.2018 65.4718 80.3227 65.2791 80.3595 65.0629C80.3963 64.8468 80.3459 64.6249 80.2194 64.4459C80.0929 64.2669 79.9006 64.1454 79.6847 64.1081C79.4688 64.0707 79.2469 64.1206 79.0677 64.2467L47.2169 86.7841Z" fill="#E6E6E6"/>
<path d="M50.0838 90.8403C49.9046 90.9668 49.783 91.1593 49.7455 91.3755C49.7081 91.5917 49.758 91.814 49.8843 91.9934C50.0105 92.1729 50.2028 92.2948 50.4188 92.3325C50.6349 92.3702 50.8571 92.3205 51.0365 92.1943L51.0394 92.1923L76.0988 74.4605C76.278 74.3337 76.3995 74.1409 76.4367 73.9244C76.4738 73.708 76.4234 73.4857 76.2967 73.3064C76.234 73.2176 76.1544 73.1421 76.0624 73.0841C75.9705 73.0261 75.8681 72.9868 75.761 72.9684C75.5447 72.9312 75.3225 72.9816 75.1433 73.1084L50.0838 90.8403Z" fill="#E6E6E6"/>
<path d="M94.2158 72.3187L37.0338 112.78L23.3311 93.391L80.513 52.9296L94.2158 72.3187ZM37.3676 110.833L92.2699 71.9847L80.1792 54.8766L25.2769 93.725L37.3676 110.833Z" fill="#E6E6E6"/>
<path d="M224.785 65.135C224.987 65.1272 225.19 65.1616 225.378 65.2362C225.558 65.308 225.72 65.4161 225.855 65.5537C225.992 65.6921 226.098 65.857 226.167 66.0382C226.241 66.2302 226.275 66.4353 226.266 66.6408C226.258 66.8517 226.209 67.0589 226.122 67.251C226.037 67.4395 225.918 67.6109 225.772 67.757C225.627 67.9024 225.456 68.02 225.269 68.1041C225.078 68.1896 224.873 68.2365 224.665 68.2423C224.462 68.2484 224.26 68.2121 224.071 68.1357C223.893 68.0628 223.732 67.9539 223.597 67.8157C223.463 67.6769 223.358 67.5119 223.289 67.331C223.217 67.1396 223.184 66.9355 223.193 66.7311C223.201 66.5213 223.25 66.3152 223.337 66.1239C223.421 65.9373 223.539 65.7675 223.684 65.6225C223.828 65.4774 223.997 65.3597 224.183 65.2752C224.373 65.1894 224.577 65.1418 224.785 65.135Z" fill="#F2F2F2"/>
<path d="M64.0199 84.8586L60.3014 64.5186L60.5633 51.9398L52.1826 51.6778L53.754 65.8288L59.1728 85.4518C58.7231 85.9988 58.4475 86.6682 58.3816 87.3735C58.3157 88.0787 58.4626 88.7876 58.8032 89.4085C59.1439 90.0295 59.6627 90.534 60.2927 90.8571C60.9228 91.1801 61.6351 91.3068 62.3378 91.2208C63.0405 91.1348 63.7013 90.8401 64.2349 90.3746C64.7686 89.9092 65.1506 89.2944 65.3316 88.6096C65.5127 87.9248 65.4845 87.2014 65.2507 86.5328C65.0168 85.8642 64.5881 85.281 64.0199 84.8586Z" fill="#FFB8B8"/>
<path d="M51.6592 52.9881C54.6955 51.8308 58.0511 51.8308 61.0875 52.9881L60.5637 42.5058C60.5637 41.9551 60.4553 41.4099 60.2447 40.9012C60.0341 40.3925 59.7255 39.9303 59.3363 39.5409C58.9472 39.1516 58.4853 38.8427 57.9769 38.632C57.4685 38.4213 56.9236 38.3129 56.3733 38.3129C55.823 38.3129 55.2781 38.4213 54.7698 38.632C54.2614 38.8427 53.7994 39.1516 53.4103 39.5409C53.0212 39.9303 52.7125 40.3925 52.502 40.9012C52.2914 41.4099 52.183 41.9551 52.183 42.5058L51.6592 52.9881Z" fill="#2FB73B"/>
</g>
<defs>
<clipPath id="clip0_717_659">
<rect width="229" height="142" fill="white"/>
</clipPath>
</defs>
</svg>
