<svg width="41" height="39" viewBox="0 0 41 39" fill="none" xmlns="http://www.w3.org/2000/svg">
<path d="M27.625 37.5H13.375M1.5 22.775V9.475C1.5 6.815 1.5 5.485 2.01775 4.4685C2.47375 3.57313 3.19813 2.84875 4.0935 2.39275C5.11 1.875 6.44 1.875 9.1 1.875H31.9C34.56 1.875 35.89 1.875 36.9041 2.39275C37.7995 2.84875 38.5262 3.57313 38.9822 4.4685C39.5 5.48262 39.5 6.81262 39.5 9.46787V22.7821C39.5 25.4374 39.5 26.765 38.9822 27.7791C38.5262 28.6738 37.7988 29.4012 36.9041 29.8572C35.89 30.375 34.5624 30.375 31.9071 30.375H9.09288C6.43762 30.375 5.10762 30.375 4.0935 29.8572C3.19951 29.4011 2.47287 28.6736 2.01775 27.7791C1.5 26.765 1.5 25.435 1.5 22.775ZM26.4375 16.125L15.75 9V23.25L26.4375 16.125Z" stroke="#026F2E" stroke-width="2" stroke-linecap="round" stroke-linejoin="round"/>
</svg>
