<svg width="28" height="30" viewBox="0 0 28 30" fill="none" xmlns="http://www.w3.org/2000/svg">
<g filter="url(#filter0_d_675_537)">
<path d="M17 11L14 14L11 11M23 12C23 10.8181 22.7672 9.64778 22.3149 8.55585C21.8626 7.46392 21.1997 6.47177 20.364 5.63604C19.5282 4.80031 18.5361 4.13738 17.4442 3.68508C16.3522 3.23279 15.1819 3 14 3C12.8181 3 11.6478 3.23279 10.5558 3.68508C9.46392 4.13738 8.47177 4.80031 7.63604 5.63604C6.80031 6.47177 6.13738 7.46392 5.68508 8.55585C5.23279 9.64778 5 10.8181 5 12C5 14.3869 5.94821 16.6761 7.63604 18.364C9.32387 20.0518 11.6131 21 14 21C16.3869 21 18.6761 20.0518 20.364 18.364C22.0518 16.6761 23 14.3869 23 12Z" stroke="#003333" stroke-width="2" stroke-linecap="round" stroke-linejoin="round"/>
</g>
<defs>
<filter id="filter0_d_675_537" x="-2" y="0" width="32" height="32" filterUnits="userSpaceOnUse" color-interpolation-filters="sRGB">
<feFlood flood-opacity="0" result="BackgroundImageFix"/>
<feColorMatrix in="SourceAlpha" type="matrix" values="0 0 0 0 0 0 0 0 0 0 0 0 0 0 0 0 0 0 127 0" result="hardAlpha"/>
<feOffset dy="4"/>
<feGaussianBlur stdDeviation="2"/>
<feComposite in2="hardAlpha" operator="out"/>
<feColorMatrix type="matrix" values="0 0 0 0 0 0 0 0 0 0 0 0 0 0 0 0 0 0 0.25 0"/>
<feBlend mode="normal" in2="BackgroundImageFix" result="effect1_dropShadow_675_537"/>
<feBlend mode="normal" in="SourceGraphic" in2="effect1_dropShadow_675_537" result="shape"/>
</filter>
</defs>
</svg>
