<svg width="45" height="45" viewBox="0 0 45 45" fill="none" xmlns="http://www.w3.org/2000/svg">
<path d="M16.5672 4.11037C16.2147 3.2294 15.6065 2.47419 14.8208 1.9421C14.0351 1.41001 13.1081 1.12541 12.1592 1.125H5.62562C4.43199 1.125 3.28723 1.59917 2.4432 2.4432C1.59917 3.28723 1.125 4.43199 1.125 5.62562C1.125 26.7489 18.2487 43.875 39.3744 43.875C40.568 43.875 41.7128 43.4008 42.5568 42.5568C43.4008 41.7128 43.875 40.568 43.875 39.3744V32.8408C43.8751 31.8915 43.5907 30.9639 43.0586 30.1778C42.5264 29.3917 41.771 28.783 40.8896 28.4304L34.6291 25.9271C33.8341 25.609 32.9679 25.5116 32.1221 25.6454C31.2764 25.7792 30.4825 26.1391 29.8245 26.6871L28.2095 28.0361C27.2985 28.7955 26.1365 29.1868 24.9518 29.1332C23.7671 29.0795 22.6452 28.5849 21.8065 27.7464L17.256 23.1887C16.418 22.3509 15.9234 21.2301 15.8693 20.0463C15.8153 18.8625 16.2057 17.7012 16.9639 16.7905L18.3105 15.1755C18.8597 14.5177 19.2208 13.7237 19.3554 12.8774C19.49 12.0311 19.3932 11.1642 19.0752 10.3685L16.5672 4.11037Z" stroke="#026F2E" stroke-width="2" stroke-linecap="round" stroke-linejoin="round"/>
</svg>
