<svg width="18" height="18" viewBox="0 0 18 18" fill="none" xmlns="http://www.w3.org/2000/svg">
<path d="M1.24413 3.08789L2.34569 3.94922C3.84765 2.0293 6.18359 0.796876 8.80663 0.796876C13.3359 0.796875 17.0019 4.45898 17.0078 8.99023C17.0137 13.5254 13.3398 17.2031 8.80663 17.2031C5.26562 17.2031 2.24804 14.957 1.0996 11.8105C1.0703 11.7285 1.11327 11.6367 1.1953 11.6094L2.30273 11.2285C2.34134 11.2153 2.38359 11.2177 2.42046 11.2352C2.45732 11.2527 2.48587 11.284 2.49999 11.3223C2.53515 11.4199 2.57421 11.5176 2.61523 11.6133C2.95312 12.4141 3.43749 13.1328 4.05468 13.75C4.66689 14.3634 5.39174 14.8528 6.18945 15.1914C7.01562 15.541 7.89648 15.7188 8.80273 15.7188C9.71093 15.7188 10.5898 15.541 11.416 15.1914C12.2145 14.8542 12.9396 14.3646 13.5508 13.75C14.1646 13.1379 14.6535 12.4121 14.9902 11.6133C15.3398 10.7852 15.5176 9.90625 15.5176 8.99805C15.5176 8.08984 15.3398 7.21094 14.9902 6.38281C14.6523 5.58203 14.168 4.86328 13.5508 4.24609C12.9336 3.62891 12.2148 3.14453 11.416 2.80469C10.5898 2.45508 9.70898 2.27734 8.80273 2.27734C7.89452 2.27734 7.01562 2.45508 6.18944 2.80469C5.39096 3.14189 4.66585 3.63148 4.05468 4.24609C3.86132 4.43945 3.67968 4.64453 3.51171 4.85938L4.68749 5.77734C4.71076 5.79534 4.72847 5.81954 4.73859 5.84715C4.74871 5.87477 4.75084 5.90468 4.74472 5.93345C4.7386 5.96222 4.72448 5.98867 4.70399 6.00978C4.6835 6.03088 4.65747 6.04577 4.6289 6.05274L1.19921 6.89258C1.10155 6.91602 1.00585 6.8418 1.00585 6.74219L0.990227 3.20899C0.99218 3.08008 1.14257 3.00781 1.24413 3.08789Z" fill="#FFD600"/>
</svg>
