<svg width="29" height="28" viewBox="0 0 29 28" fill="none" xmlns="http://www.w3.org/2000/svg">
<path d="M14.5 5.02084V8.66667M14.5 5.02084C14.5 4.29976 14.7138 3.59487 15.1144 2.99532C15.515 2.39576 16.0844 1.92847 16.7506 1.65252C17.4168 1.37658 18.1499 1.30438 18.8571 1.44506C19.5643 1.58573 20.2139 1.93296 20.7238 2.44284C21.2337 2.95272 21.5809 3.60235 21.7216 4.30957C21.8623 5.01679 21.7901 5.74985 21.5141 6.41604C21.2382 7.08222 20.7709 7.65162 20.1714 8.05223C19.5718 8.45284 18.8669 8.66667 18.1458 8.66667M14.5 5.02084C14.5 4.29976 14.2862 3.59487 13.8856 2.99532C13.485 2.39576 12.9156 1.92847 12.2494 1.65252C11.5832 1.37658 10.8501 1.30438 10.1429 1.44506C9.43568 1.58573 8.78605 1.93296 8.27617 2.44284C7.76629 2.95272 7.41906 3.60235 7.27839 4.30957C7.13771 5.01679 7.20991 5.74985 7.48586 6.41604C7.7618 7.08222 8.2291 7.65162 8.82865 8.05223C9.4282 8.45284 10.1331 8.66667 10.8542 8.66667M14.5 8.66667H18.1458M14.5 8.66667H10.8542M14.5 8.66667V17.4167M18.1458 8.66667H22.9583C24.5917 8.66667 25.4083 8.66667 26.031 8.98459C26.5808 9.26459 27.0271 9.70938 27.3071 10.2592C27.625 10.8819 27.625 11.6985 27.625 13.329V17.4167M10.8542 8.66667H6.04167C4.40833 8.66667 3.59167 8.66667 2.9675 8.98459C2.41866 9.26413 1.97246 9.71033 1.69292 10.2592C1.375 10.8833 1.375 11.7 1.375 13.3333V17.4167M14.5 17.4167H1.375M14.5 17.4167V26.1667M14.5 17.4167H27.625M27.625 17.4167V21.5058C27.625 23.1363 27.625 23.95 27.3071 24.5742C27.0271 25.1225 26.5808 25.5688 26.031 25.8488C25.4083 26.1667 24.5931 26.1667 22.9627 26.1667H14.5M1.375 17.4167V21.5C1.375 23.1333 1.375 23.95 1.69292 24.5742C1.97254 25.123 2.41872 25.5691 2.9675 25.8488C3.59021 26.1667 4.40688 26.1667 6.03729 26.1667H14.5" stroke="white" stroke-width="2" stroke-linecap="round" stroke-linejoin="round"/>
</svg>
