<svg width="45" height="37" viewBox="0 0 45 37" fill="none" xmlns="http://www.w3.org/2000/svg">
<path d="M13.8143 24.6512C14.9208 23.4647 16.2586 22.5175 17.7453 21.8681C19.232 21.2186 20.836 20.8807 22.4583 20.8751C24.0807 20.8696 25.6869 21.1965 27.1781 21.8357C28.6692 22.475 30.0135 23.413 31.128 24.5919M8.60355 17.417C10.3739 15.5186 12.5144 14.0031 14.8931 12.9639C17.2718 11.9248 19.8382 11.3841 22.434 11.3752C25.0297 11.3663 27.5998 11.8894 29.9856 12.9122C32.3713 13.935 34.5222 15.4358 36.3055 17.322M1.6543 10.938C4.30982 8.09 7.52078 5.8164 11.0891 4.25748C14.6573 2.69856 18.5072 1.88739 22.4011 1.87404C26.2951 1.86069 30.1504 2.64543 33.7293 4.17984C37.3082 5.71425 40.5347 7.96578 43.2097 10.7955M22.4997 35.125C21.8698 35.125 21.2657 34.8748 20.8203 34.4294C20.3749 33.984 20.1247 33.3799 20.1247 32.75C20.1247 32.1201 20.3749 31.516 20.8203 31.0706C21.2657 30.6252 21.8698 30.375 22.4997 30.375C23.1296 30.375 23.7336 30.6252 24.179 31.0706C24.6244 31.516 24.8747 32.1201 24.8747 32.75C24.8747 33.3799 24.6244 33.984 24.179 34.4294C23.7336 34.8748 23.1296 35.125 22.4997 35.125Z" stroke="#026F2E" stroke-width="2" stroke-linecap="round" stroke-linejoin="round"/>
</svg>
