<svg width="45" height="41" viewBox="0 0 45 41" fill="none" xmlns="http://www.w3.org/2000/svg">
<path d="M36.75 39.5L43.875 32.375M43.875 32.375L36.75 25.25M43.875 32.375H34.375C31.2256 32.375 28.2051 31.1239 25.9781 28.8969C23.7511 26.6699 22.5 23.6494 22.5 20.5C22.5 18.9406 22.1928 17.3964 21.5961 15.9556C20.9993 14.5149 20.1246 13.2058 19.0219 12.1031C17.9192 11.0004 16.6101 10.1257 15.1694 9.52893C13.7286 8.93216 12.1844 8.625 10.625 8.625H1.125M36.75 1.5L43.875 8.625M43.875 8.625L36.75 15.75M43.875 8.625H34.375C31.805 8.62121 29.3037 9.45496 27.25 11M1.125 32.375H10.625C13.195 32.3788 15.6963 31.545 17.75 30" stroke="#026F2E" stroke-width="2" stroke-linecap="round" stroke-linejoin="round"/>
</svg>
