<svg width="20" height="20" viewBox="0 0 20 20" fill="none" xmlns="http://www.w3.org/2000/svg">
<path d="M1 10C1 11.1819 1.23279 12.3522 1.68508 13.4442C2.13738 14.5361 2.80031 15.5282 3.63604 16.364C4.47177 17.1997 5.46392 17.8626 6.55585 18.3149C7.64778 18.7672 8.8181 19 10 19C11.1819 19 12.3522 18.7672 13.4442 18.3149C14.5361 17.8626 15.5282 17.1997 16.364 16.364C17.1997 15.5282 17.8626 14.5361 18.3149 13.4442C18.7672 12.3522 19 11.1819 19 10C19 7.61305 18.0518 5.32387 16.364 3.63604C14.6761 1.94821 12.3869 1 10 1C7.61305 1 5.32387 1.94821 3.63604 3.63604C1.94821 5.32387 1 7.61305 1 10Z" stroke="#026F2E" stroke-width="2" stroke-linecap="round" stroke-linejoin="round"/>
<path d="M13 11.4V8.6C13 8.04 13 7.76 12.89 7.546C12.7945 7.35792 12.6419 7.20493 12.454 7.109C12.24 7 11.96 7 11.4 7H8.6C8.04 7 7.76 7 7.546 7.109C7.35785 7.20487 7.20487 7.35785 7.109 7.546C7 7.76 7 8.04 7 8.6V11.4C7 11.96 7 12.24 7.109 12.454C7.205 12.642 7.358 12.794 7.546 12.891C7.76 13 8.04 13 8.6 13H11.4C11.96 13 12.24 13 12.454 12.89C12.6421 12.7946 12.7951 12.6419 12.891 12.454C13 12.24 13 11.96 13 11.4Z" stroke="#026F2E" stroke-width="2" stroke-linecap="round" stroke-linejoin="round"/>
</svg>
