<svg width="22" height="24" viewBox="0 0 22 24" fill="none" xmlns="http://www.w3.org/2000/svg">
<path d="M20.3337 22.5C20.3337 19.2788 16.1547 16.6667 11.0003 16.6667C5.84599 16.6667 1.66699 19.2788 1.66699 22.5M11.0003 13.1667C9.45323 13.1667 7.9695 12.5521 6.87554 11.4581C5.78157 10.3642 5.16699 8.88043 5.16699 7.33333C5.16699 5.78624 5.78157 4.30251 6.87554 3.20854C7.9695 2.11458 9.45323 1.5 11.0003 1.5C12.5474 1.5 14.0312 2.11458 15.1251 3.20854C16.2191 4.30251 16.8337 5.78624 16.8337 7.33333C16.8337 8.88043 16.2191 10.3642 15.1251 11.4581C14.0312 12.5521 12.5474 13.1667 11.0003 13.1667Z" stroke="white" stroke-width="2" stroke-linecap="round" stroke-linejoin="round"/>
</svg>
