<svg width="129" height="25" viewBox="0 0 129 25" fill="none" xmlns="http://www.w3.org/2000/svg">
<path d="M128.613 7.19619H125.796C125.301 7.19619 124.785 7.69078 124.785 7.69078L114.12 21.6896C113.926 21.9907 113.625 21.9907 113.41 21.6896L103.454 7.69078C103.454 7.69078 103.045 7.19619 102.357 7.19619H83.4339C83.1329 7.19619 82.8318 6.89514 82.8318 6.59409V1.97082C82.8318 1.2612 82.3372 0.766619 81.6276 0.766619H52.5333C47.996 0.960151 46.0822 1.36872 44.0823 2.57292C42.1685 3.6696 41.1579 5.08884 41.1579 6.80913C41.1579 8.61543 42.6631 10.4217 45.5876 12.142C46.3832 12.6366 49.1142 13.9483 53.7375 16.0772C56.6619 17.4964 58.2747 18.5931 58.1672 19.6898C57.9737 21.4961 56.3609 22.0982 52.5333 22.0982H34.9218C34.5132 22.0982 34.1262 21.9907 34.1262 21.6896C34.1262 21.4961 34.2337 21.3886 34.4272 21.281C38.3624 18.8726 39.6526 15.7546 39.6526 12.8301C39.6526 7.30371 35.1154 0.745117 17.0093 0.745117H1.2042C0.494584 0.745117 0 1.2397 0 1.94932V23.4959C0 24.2055 0.494584 24.7001 1.2042 24.7001H17.0093C17.6114 24.7001 18.2135 24.7001 18.7296 24.7001H58.2747C61.8873 24.7001 64.7258 24.098 66.7256 22.8938C68.6394 21.7971 69.5426 20.3779 69.5426 18.6576C69.5426 16.8513 68.0373 15.131 65.1128 13.3247C64.4032 12.8301 61.5863 11.5184 56.963 9.38956C54.0385 8.07784 52.5333 6.98116 52.5333 6.07801C52.5333 4.27171 54.4471 3.36855 58.2747 3.36855H71.6499C71.951 3.36855 72.252 3.6696 72.252 3.97065V19.5607C72.252 21.8831 73.7573 24.5926 78.3806 24.5926H115.109C116.012 24.5926 116.42 23.9905 116.42 23.9905L129 7.47574C128.914 7.58326 129.129 7.19619 128.613 7.19619ZM14.6009 22.0767H10.6658C10.3647 22.0767 10.0637 21.7756 10.0637 21.4746V3.86314C10.0637 3.56209 10.3647 3.26104 10.6658 3.26104H14.6009C24.256 3.26104 29.2879 7.19619 29.2879 12.6151C29.2879 18.163 24.1485 22.0767 14.6009 22.0767ZM102.744 22.1842H85.7563C83.4339 22.1842 82.8318 21.4746 82.8318 19.6683V10.2067C82.8318 9.90564 83.1329 9.71211 83.4339 9.71211H93.304C93.6051 9.71211 94.0137 9.90564 94.2072 10.1207L103.067 21.6896C103.153 21.9907 103.067 22.1842 102.744 22.1842Z" fill="#179EDB"/>
</svg>
